<svg width="18" height="18" viewBox="0 0 18 18" fill="none" xmlns="http://www.w3.org/2000/svg">
<g id="mingcute:back-line" clip-path="url(#clip0_375_11060)">
<g id="Group">
<path id="Vector" fill-rule="evenodd" clip-rule="evenodd" d="M2.30709 4.21275C2.3639 4.07574 2.46005 3.95864 2.58341 3.87627C2.70676 3.79391 2.85176 3.74996 3.00009 3.75H10.5001C11.1895 3.75 11.8722 3.8858 12.5092 4.14963C13.1461 4.41347 13.7249 4.80018 14.2124 5.28769C14.6999 5.7752 15.0866 6.35395 15.3505 6.99091C15.6143 7.62787 15.7501 8.31056 15.7501 9C15.7501 9.68944 15.6143 10.3721 15.3505 11.0091C15.0866 11.646 14.6999 12.2248 14.2124 12.7123C13.7249 13.1998 13.1461 13.5865 12.5092 13.8504C11.8722 14.1142 11.1895 14.25 10.5001 14.25H3.75009C3.55117 14.25 3.36041 14.171 3.21976 14.0303C3.0791 13.8897 3.00009 13.6989 3.00009 13.5C3.00009 13.3011 3.0791 13.1103 3.21976 12.9697C3.36041 12.829 3.55117 12.75 3.75009 12.75H10.5001C11.4946 12.75 12.4485 12.3549 13.1517 11.6517C13.855 10.9484 14.2501 9.99456 14.2501 9C14.2501 8.00544 13.855 7.05161 13.1517 6.34835C12.4485 5.64509 11.4946 5.25 10.5001 5.25H4.81059L6.15534 6.59475C6.29196 6.7362 6.36755 6.92565 6.36584 7.1223C6.36413 7.31895 6.28526 7.50706 6.1462 7.64611C6.00714 7.78517 5.81904 7.86405 5.62239 7.86576C5.42574 7.86746 5.23629 7.79187 5.09484 7.65525L2.46984 5.03025C2.36489 4.92537 2.29341 4.79171 2.26444 4.64619C2.23547 4.50067 2.25031 4.34983 2.30709 4.21275Z" fill="#303030"/>
</g>
</g>
<defs>
<clipPath id="clip0_375_11060">
<rect width="18" height="18" fill="white"/>
</clipPath>
</defs>
</svg>
