<svg width="18" height="18" viewBox="0 0 18 18" fill="none" xmlns="http://www.w3.org/2000/svg">
<path id="Vector" d="M9.00024 0C9.62436 0 10.2338 0.0597656 10.8285 0.16875C11.1186 0.221484 11.6289 0.383203 11.9079 0.875391C11.9813 1.00547 12.0401 1.14258 12.0768 1.29023L12.4182 2.64375C12.4696 2.84766 12.8294 3.04805 13.0387 2.98828L14.4338 2.59453C14.5806 2.55234 14.7311 2.53125 14.8817 2.52773C15.4727 2.51016 15.8729 2.8582 16.0675 3.06914C16.8788 3.95156 17.503 4.98867 17.8995 6.10313C17.9949 6.37031 18.1051 6.86953 17.8003 7.34766C17.7196 7.47422 17.6205 7.59375 17.5066 7.69922L16.453 8.65898C16.2988 8.79961 16.2988 9.20391 16.453 9.34453L17.5066 10.3043C17.6205 10.4098 17.7196 10.5293 17.8003 10.6559C18.1014 11.134 17.9913 11.6332 17.8995 11.9004C17.503 13.0148 16.8788 14.0484 16.0675 14.9344C15.8729 15.1453 15.4691 15.4934 14.8817 15.4758C14.7311 15.4723 14.5806 15.4477 14.4338 15.409L13.0387 15.0117C12.8294 14.952 12.4696 15.1523 12.4182 15.3562L12.0768 16.7098C12.0401 16.8574 11.9813 16.998 11.9079 17.1246C11.6252 17.6168 11.1149 17.775 10.8285 17.8313C10.2338 17.9402 9.62436 18 9.00024 18C8.37612 18 7.76668 17.9402 7.17193 17.8313C6.8819 17.7785 6.37159 17.6168 6.09257 17.1246C6.01915 16.9945 5.9604 16.8574 5.92369 16.7098L5.58226 15.3562C5.53086 15.1523 5.17108 14.952 4.96181 15.0117L3.56672 15.4055C3.41987 15.4477 3.26934 15.4688 3.11882 15.4723C2.52774 15.4898 2.12757 15.1418 1.93299 14.9309C1.1253 14.0484 0.497512 13.0113 0.101011 11.8969C0.0055576 11.6297 -0.104581 11.1305 0.200136 10.6523C0.280905 10.5258 0.38003 10.4062 0.49384 10.3008L1.5475 9.34102C1.7017 9.20039 1.7017 8.79609 1.5475 8.65547L0.490169 7.6957C0.376359 7.59023 0.277234 7.4707 0.196465 7.34414C-0.104581 6.86602 0.0055576 6.3668 0.101011 6.10313C0.497512 4.98867 1.12163 3.95508 1.93299 3.06914C2.12757 2.8582 2.53141 2.51016 3.11882 2.52773C3.26934 2.53125 3.41987 2.55586 3.56672 2.59453L4.96181 2.98828C5.17108 3.04805 5.53086 2.84766 5.58226 2.64375L5.92369 1.29023C5.9604 1.14258 6.01915 1.00195 6.09257 0.875391C6.37526 0.383203 6.88557 0.225 7.17193 0.16875C7.76668 0.0597656 8.37612 0 9.00024 0ZM7.60882 1.80703L7.29676 3.04102C7.0104 4.17656 5.63366 4.93594 4.46251 4.60898L3.19592 4.25039C2.59015 4.92891 2.11288 5.71641 1.80082 6.56016L2.7627 7.43555C3.64382 8.23711 3.64382 9.76289 2.7627 10.5645L1.80082 11.4398C2.11288 12.2836 2.59015 13.0711 3.19592 13.7496L4.46619 13.391C5.63366 13.0605 7.01407 13.8234 7.30043 14.959L7.61249 16.193C8.51563 16.3512 9.49587 16.3512 10.399 16.193L10.7111 14.959C10.9974 13.8234 12.3742 13.0641 13.5453 13.391L14.8156 13.7496C15.4213 13.0711 15.8986 12.2836 16.2107 11.4398L15.2488 10.5645C14.3677 9.76289 14.3677 8.23711 15.2488 7.43555L16.2107 6.56016C15.8986 5.71641 15.4213 4.92891 14.8156 4.25039L13.5453 4.60898C12.3778 4.93945 10.9974 4.17656 10.7111 3.04102L10.399 1.80703C9.49587 1.64883 8.51563 1.64883 7.61249 1.80703H7.60882ZM7.23802 9C7.23802 9.44755 7.42368 9.87678 7.75416 10.1932C8.08464 10.5097 8.53287 10.6875 9.00024 10.6875C9.46761 10.6875 9.91584 10.5097 10.2463 10.1932C10.5768 9.87678 10.7625 9.44755 10.7625 9C10.7625 8.55245 10.5768 8.12322 10.2463 7.80676C9.91584 7.49029 9.46761 7.3125 9.00024 7.3125C8.53287 7.3125 8.08464 7.49029 7.75416 7.80676C7.42368 8.12322 7.23802 8.55245 7.23802 9ZM9.00024 12.375C8.0655 12.375 7.16904 12.0194 6.50808 11.3865C5.84712 10.7536 5.47579 9.89511 5.47579 9C5.47579 8.10489 5.84712 7.24645 6.50808 6.61351C7.16904 5.98058 8.0655 5.625 9.00024 5.625C9.93498 5.625 10.8314 5.98058 11.4924 6.61351C12.1534 7.24645 12.5247 8.10489 12.5247 9C12.5247 9.89511 12.1534 10.7536 11.4924 11.3865C10.8314 12.0194 9.93498 12.375 9.00024 12.375Z" fill="#303030"/>
</svg>
