<svg width="26" height="26" viewBox="0 0 26 26" fill="none" xmlns="http://www.w3.org/2000/svg">
<g id="Frame" clip-path="url(#clip0_292_632)">
<g id="Group 38">
<path id="Vector" fill-rule="evenodd" clip-rule="evenodd" d="M16.2028 14.3917H23.8887C24.5173 14.3917 24.746 14.4585 24.9768 14.5803C25.203 14.7006 25.3906 14.8877 25.5114 15.1149C25.6357 15.3462 25.7 15.5749 25.7 16.203V23.8887C25.7 24.5173 25.6332 24.746 25.5114 24.9768C25.3911 25.203 25.204 25.3906 24.9768 25.5114C24.7455 25.6358 24.5168 25.7 23.8887 25.7H16.2028C15.5742 25.7 15.3455 25.6332 15.1147 25.5114C14.8885 25.3911 14.7009 25.204 14.5801 24.9768C14.4557 24.7455 14.3915 24.5168 14.3915 23.8887V16.2025C14.3915 15.5739 14.4583 15.3452 14.5801 15.1144C14.7004 14.8882 14.8875 14.7006 15.1147 14.5798C15.346 14.4554 15.5747 14.3917 16.2028 14.3917ZM16.2028 0H23.8887C24.5173 0 24.746 0.0668187 24.9768 0.188634C25.203 0.308908 25.3906 0.496 25.5114 0.723184C25.6357 0.954479 25.7 1.1832 25.7 1.8113V9.49699C25.7 10.1256 25.6332 10.3543 25.5114 10.5851C25.3911 10.8113 25.204 10.9989 24.9768 11.1197C24.7455 11.244 24.5168 11.3083 23.8887 11.3083H16.2028C15.5742 11.3083 15.3455 11.2415 15.1147 11.1197C14.8885 10.9994 14.7009 10.8123 14.5801 10.5851C14.4557 10.3538 14.3915 10.1251 14.3915 9.49699V1.81079C14.3915 1.18218 14.4583 0.953451 14.5801 0.72267C14.7004 0.496514 14.8875 0.308908 15.1147 0.18812C15.3455 0.0642487 15.5742 0 16.2028 0ZM1.81082 14.3917H9.49666C10.1253 14.3917 10.354 14.4585 10.5848 14.5803C10.811 14.7006 10.9986 14.8877 11.1194 15.1149C11.2437 15.3462 11.308 15.5749 11.308 16.203V23.8887C11.308 24.5173 11.2412 24.746 11.1194 24.9768C10.9991 25.203 10.812 25.3906 10.5848 25.5114C10.3535 25.6358 10.1248 25.7 9.49666 25.7H1.81082C1.1822 25.7 0.95347 25.6332 0.722684 25.5114C0.496524 25.3911 0.308914 25.204 0.188124 24.9768C0.06425 24.746 0 24.5173 0 23.8887V16.2025C0 15.5739 0.06682 15.3452 0.188638 15.1144C0.308914 14.8882 0.49601 14.7006 0.723198 14.5798C0.954498 14.4554 1.18323 14.3912 1.81134 14.3912L1.81082 14.3917ZM1.81082 0H9.49666C10.1253 0 10.354 0.0668187 10.5848 0.188634C10.811 0.308908 10.9986 0.496 11.1194 0.723184C11.2437 0.954479 11.308 1.1832 11.308 1.8113V9.49699C11.308 10.1256 11.2412 10.3543 11.1194 10.5851C10.9991 10.8113 10.812 10.9989 10.5848 11.1197C10.3535 11.244 10.1248 11.3083 9.49666 11.3083H1.81082C1.1822 11.3083 0.95347 11.2415 0.722684 11.1197C0.496524 10.9994 0.308914 10.8123 0.188124 10.5851C0.06425 10.3543 0 10.1256 0 9.49699V1.81079C0 1.18218 0.06682 0.951909 0.188638 0.72267C0.310643 0.496298 0.496308 0.310637 0.722684 0.188634C0.95347 0.0668187 1.1822 0 1.81082 0Z" fill="#4C634B"/>
<path id="Vector_2" d="M17.9902 21.4847C17.9902 21.7314 18.1947 21.9303 18.444 21.9303C18.5631 21.9307 18.6776 21.8842 18.7625 21.8007C18.8475 21.7173 18.8961 21.6037 18.8979 21.4847V19.5089L21.5424 22.1045C21.6279 22.1884 21.7429 22.2353 21.8626 22.2353C21.9824 22.2353 22.0974 22.1884 22.1829 22.1045C22.2254 22.0638 22.2592 22.0149 22.2824 21.9608C22.3055 21.9066 22.3175 21.8483 22.3175 21.7895C22.3175 21.6712 22.2692 21.5582 22.1829 21.4744L19.5409 18.8803H21.5527C21.6718 18.8807 21.7862 18.8341 21.8712 18.7507C21.9562 18.6673 22.0048 18.5537 22.0066 18.4347C22.0066 18.1879 21.8035 17.989 21.5527 17.989H18.443C18.3829 17.989 18.3248 18.0008 18.2682 18.0229C18.1577 18.0671 18.0693 18.1556 18.0231 18.2645C17.9989 18.3169 17.9891 18.3776 17.9891 18.4331L17.9902 21.4847ZM21.7424 7.92202C21.9891 7.92202 22.188 7.71745 22.188 7.46817C22.1884 7.34909 22.1419 7.23465 22.0584 7.14968C21.975 7.06471 21.8614 7.01607 21.7424 7.01431H19.7666L22.3623 4.37241C22.4455 4.28617 22.492 4.17101 22.492 4.05116C22.492 3.93132 22.4455 3.81615 22.3623 3.72992C22.3211 3.68804 22.272 3.65477 22.2179 3.63206C22.1637 3.60935 22.1056 3.59766 22.0469 3.59766C21.9882 3.59766 21.9301 3.60935 21.8759 3.63206C21.8218 3.65477 21.7727 3.68804 21.7316 3.72992L19.1374 6.37594V4.3647C19.1374 4.11387 18.937 3.91084 18.6918 3.91084C18.6328 3.91104 18.5744 3.92291 18.5201 3.94576C18.4657 3.96862 18.4164 4.002 18.3749 4.04399C18.3335 4.08599 18.3008 4.13576 18.2787 4.19045C18.2566 4.24514 18.2455 4.30366 18.2461 4.36264V7.47228C18.2461 7.53036 18.258 7.5905 18.2801 7.64498C18.3243 7.75549 18.4106 7.84389 18.5216 7.89015C18.5756 7.91431 18.6322 7.92613 18.6923 7.92613H21.7424V7.92202ZM4.34861 17.9895C4.10189 17.9895 3.90297 18.1941 3.90297 18.4434C3.90297 18.6927 4.10189 18.8972 4.34861 18.8972H6.32443L3.72873 21.5361C3.55397 21.7149 3.55397 21.9997 3.72873 22.1786C3.76981 22.2205 3.81883 22.2538 3.87293 22.2765C3.92703 22.2993 3.98512 22.3111 4.04381 22.3112C4.16203 22.3112 4.27511 22.2628 4.35889 22.1786L6.95305 19.5341V21.5458C6.95305 21.7967 7.15197 21.9997 7.39869 21.9997C7.64541 21.9997 7.84432 21.7931 7.84432 21.5458V18.4362C7.84432 18.3781 7.8325 18.318 7.8104 18.2635C7.7662 18.153 7.67779 18.0646 7.56882 18.0183C7.51507 17.9946 7.45694 17.9823 7.39817 17.9823H4.34861V17.9895ZM7.47065 3.90313C7.21981 3.90313 7.01678 4.10205 7.01678 4.34876V6.32454L4.37225 3.72889C4.28602 3.64567 4.17085 3.59916 4.051 3.59916C3.93116 3.59916 3.81599 3.64567 3.72975 3.72889C3.68809 3.77 3.655 3.81897 3.63241 3.87297C3.60982 3.92697 3.59818 3.98492 3.59817 4.04345C3.59817 4.16167 3.64649 4.27475 3.73078 4.35853L6.37531 6.95263H4.363C4.11217 6.95263 3.90914 7.15155 3.90914 7.39826C3.90914 7.64498 4.11577 7.84389 4.363 7.84389H7.4727C7.53192 7.84387 7.59058 7.83235 7.64541 7.80997C7.75592 7.75857 7.84587 7.67736 7.89058 7.56839C7.91628 7.51597 7.92656 7.45532 7.92656 7.39775V4.34825C7.92656 4.10153 7.72353 3.90262 7.4727 3.90262L7.47065 3.90313Z" fill="white"/>
</g>
</g>
<defs>
<clipPath id="clip0_292_632">
<rect width="26" height="26" fill="white"/>
</clipPath>
</defs>
</svg>
