<svg width="20" height="20" viewBox="0 0 20 20" fill="none" xmlns="http://www.w3.org/2000/svg">
<g id="Frame" clip-path="url(#clip0_361_10723)">
<path id="Vector" d="M7.14286 14.375H17.1429C17.5357 14.375 17.8571 14.0938 17.8571 13.75V5H15.7143C14.9241 5 14.2857 4.44141 14.2857 3.75V1.875H7.14286C6.75 1.875 6.42857 2.15625 6.42857 2.5V13.75C6.42857 14.0938 6.75 14.375 7.14286 14.375ZM17.1429 16.25H7.14286C5.56696 16.25 4.28571 15.1289 4.28571 13.75V2.5C4.28571 1.12109 5.56696 0 7.14286 0H14.5312C15.2902 0 16.0179 0.261719 16.5536 0.730469L19.1652 3.01562C19.7009 3.48438 20 4.12109 20 4.78516V13.75C20 15.1289 18.7188 16.25 17.1429 16.25ZM1.07143 3.75C1.66518 3.75 2.14286 4.16797 2.14286 4.6875V14.6875C2.14286 16.5859 3.90179 18.125 6.07143 18.125H14.6429C15.2366 18.125 15.7143 18.543 15.7143 19.0625C15.7143 19.582 15.2366 20 14.6429 20H6.07143C2.71875 20 0 17.6211 0 14.6875V4.6875C0 4.16797 0.477679 3.75 1.07143 3.75Z" fill="#303030"/>
</g>
<defs>
<clipPath id="clip0_361_10723">
<rect width="20" height="20" fill="white"/>
</clipPath>
</defs>
</svg>
