<svg width="16" height="17" viewBox="0 0 16 17" fill="none" xmlns="http://www.w3.org/2000/svg">
<g id="Frame" clip-path="url(#clip0_348_7508)">
<path id="Vector" opacity="0.8" d="M13.8877 1.8538L14.2688 2.23485C14.5648 2.53086 14.5648 3.00953 14.2688 3.3024L13.3524 4.22195L11.9006 2.7702L12.817 1.8538C13.113 1.55778 13.5917 1.55778 13.8846 1.8538H13.8877ZM6.6069 8.06706L10.833 3.83776L12.2848 5.28951L8.0555 9.51566C7.96418 9.60699 7.85081 9.67312 7.72799 9.70776L5.88575 10.2337L6.41165 8.39142C6.44629 8.2686 6.51242 8.15523 6.60375 8.06391L6.6069 8.06706ZM11.7494 0.78624L5.53619 6.99635C5.26222 7.27032 5.06382 7.60728 4.9599 7.97573L4.05924 11.1249C3.98366 11.3894 4.05609 11.6728 4.25134 11.8681C4.44659 12.0633 4.73001 12.1357 4.99454 12.0602L8.14368 11.1595C8.51528 11.0524 8.85224 10.854 9.12306 10.5832L15.3363 4.37311C16.2212 3.4882 16.2212 2.05219 15.3363 1.16729L14.9553 0.78624C14.0704 -0.0986686 12.6344 -0.0986686 11.7494 0.78624ZM2.77124 2.01441C1.24076 2.01441 0 3.25517 0 4.78565V13.3513C0 14.8818 1.24076 16.1226 2.77124 16.1226H11.3369C12.8674 16.1226 14.1082 14.8818 14.1082 13.3513V9.82428C14.1082 9.40544 13.7712 9.06848 13.3524 9.06848C12.9335 9.06848 12.5966 9.40544 12.5966 9.82428V13.3513C12.5966 14.0473 12.0329 14.611 11.3369 14.611H2.77124C2.07528 14.611 1.51159 14.0473 1.51159 13.3513V4.78565C1.51159 4.08969 2.07528 3.52599 2.77124 3.52599H6.29828C6.71712 3.52599 7.05408 3.18903 7.05408 2.7702C7.05408 2.35136 6.71712 2.01441 6.29828 2.01441H2.77124Z" fill="#303030"/>
</g>
<defs>
<clipPath id="clip0_348_7508">
<rect width="16" height="17" fill="white"/>
</clipPath>
</defs>
</svg>
