<svg width="19" height="17" viewBox="0 0 19 17" fill="none" xmlns="http://www.w3.org/2000/svg">
<g id="ph:image-light">
<g clip-path="url(#clip0_292_575)">
<path id="Vector" d="M17.5928 0.953125H2.06342C1.7358 0.953125 1.4216 1.09033 1.18993 1.33457C0.958272 1.5788 0.828125 1.91005 0.828125 2.25545V15.6508C0.828125 15.9962 0.958272 16.3274 1.18993 16.5717C1.4216 16.8159 1.7358 16.9531 2.06342 16.9531H17.5928C17.9205 16.9531 18.2347 16.8159 18.4663 16.5717C18.698 16.3274 18.8281 15.9962 18.8281 15.6508V2.25545C18.8281 1.91005 18.698 1.5788 18.4663 1.33457C18.2347 1.09033 17.9205 0.953125 17.5928 0.953125ZM2.06342 2.0694H17.5928C17.6396 2.0694 17.6845 2.08901 17.7176 2.1239C17.7507 2.15879 17.7693 2.20611 17.7693 2.25545V12.262L15.169 9.52057C15.0543 9.39962 14.9181 9.30368 14.7682 9.23822C14.6184 9.17277 14.4577 9.13908 14.2955 9.13908C14.1332 9.13908 13.9726 9.17277 13.8227 9.23822C13.6728 9.30368 13.5367 9.39962 13.4219 9.52057L11.5319 11.5131L7.52518 7.28801C7.41047 7.16706 7.27429 7.07112 7.12441 7.00567C6.97453 6.94021 6.81389 6.90652 6.65165 6.90652C6.48942 6.90652 6.32878 6.94021 6.1789 7.00567C6.02902 7.07112 5.89283 7.16706 5.77812 7.28801L1.88695 11.3903V2.25545C1.88695 2.20611 1.90554 2.15879 1.93864 2.1239C1.97173 2.08901 2.01662 2.0694 2.06342 2.0694ZM1.88695 15.6508V12.9689L6.52636 8.07778C6.54277 8.06034 6.56228 8.0465 6.58379 8.03705C6.60529 8.02761 6.62836 8.02274 6.65165 8.02274C6.67495 8.02274 6.69802 8.02761 6.71952 8.03705C6.74103 8.0465 6.76054 8.06034 6.77695 8.07778L14.1367 15.8368H2.06342C2.01662 15.8368 1.97173 15.8172 1.93864 15.7824C1.90554 15.7475 1.88695 15.7001 1.88695 15.6508ZM17.5928 15.8368H15.634L12.2811 12.302L14.1702 10.3094C14.1866 10.2921 14.206 10.2784 14.2275 10.269C14.2489 10.2597 14.2718 10.2548 14.295 10.2548C14.3182 10.2548 14.3412 10.2597 14.3626 10.269C14.384 10.2784 14.4035 10.2921 14.4199 10.3094L17.7728 13.8443V15.6508C17.7728 15.6755 17.7682 15.7 17.7591 15.7229C17.75 15.7457 17.7367 15.7664 17.7199 15.7837C17.7031 15.801 17.6833 15.8146 17.6614 15.8238C17.6396 15.8329 17.6163 15.8373 17.5928 15.8368ZM11.4164 6.34847C11.4164 6.16449 11.4681 5.98464 11.5651 5.83166C11.662 5.67869 11.7998 5.55946 11.9611 5.48905C12.1223 5.41864 12.2997 5.40022 12.4709 5.43612C12.642 5.47201 12.7992 5.5606 12.9226 5.6907C13.046 5.8208 13.1301 5.98655 13.1641 6.16699C13.1982 6.34744 13.1807 6.53448 13.1139 6.70446C13.0471 6.87444 12.934 7.01972 12.7889 7.12193C12.6438 7.22415 12.4732 7.27871 12.2987 7.27871C12.0647 7.27871 11.8403 7.1807 11.6748 7.00625C11.5093 6.8318 11.4164 6.59519 11.4164 6.34847Z" fill="#303030"/>
</g>
</g>
<defs>
<clipPath id="clip0_292_575">
<rect width="19" height="17" fill="white"/>
</clipPath>
</defs>
</svg>
