<svg width="18" height="18" viewBox="0 0 18 18" fill="none" xmlns="http://www.w3.org/2000/svg">
<g id="Frame">
<path id="Vector" d="M10.2857 0C8.23976 0 6.2776 0.842854 4.83089 2.34314C3.38418 3.84344 2.57143 5.87827 2.57143 8H0L3.33429 11.4578L3.39429 11.5822L6.85714 8H4.28571C4.28571 4.56 6.96857 1.77778 10.2857 1.77778C13.6029 1.77778 16.2857 4.56 16.2857 8C16.2857 11.44 13.6029 14.2222 10.2857 14.2222C8.63143 14.2222 7.13143 13.52 6.05143 12.3911L4.83429 13.6533C5.54864 14.3982 6.39813 14.9891 7.33377 15.3919C8.26941 15.7946 9.27267 16.0013 10.2857 16C12.3317 16 14.2938 15.1571 15.7405 13.6568C17.1872 12.1566 18 10.1217 18 8C18 5.87827 17.1872 3.84344 15.7405 2.34314C14.2938 0.842854 12.3317 3.16163e-08 10.2857 0ZM9.42857 4.44444V8.88889L13.0714 11.1289L13.7314 9.98222L10.7143 8.12444V4.44444H9.42857Z" fill="white"/>
</g>
</svg>
