<svg width="18" height="18" viewBox="0 0 18 18" fill="none" xmlns="http://www.w3.org/2000/svg">
<g id="Frame" clip-path="url(#clip0_683_215)">
<path id="Vector" d="M8 1.6875C7.725 1.6875 7.5 1.94062 7.5 2.25V15.75C7.5 16.0594 7.725 16.3125 8 16.3125H16C16.275 16.3125 16.5 16.0594 16.5 15.75V2.25C16.5 1.94062 16.275 1.6875 16 1.6875H8ZM6 2.25C6 1.00898 6.89687 0 8 0H16C17.1031 0 18 1.00898 18 2.25V15.75C18 16.991 17.1031 18 16 18H8C6.89687 18 6 16.991 6 15.75V2.25ZM3 2.53125C3 2.06367 3.33437 1.6875 3.75 1.6875C4.16563 1.6875 4.5 2.06367 4.5 2.53125V15.4688C4.5 15.9363 4.16563 16.3125 3.75 16.3125C3.33437 16.3125 3 15.9363 3 15.4688V2.53125ZM0 4.21875C0 3.75117 0.334375 3.375 0.75 3.375C1.16562 3.375 1.5 3.75117 1.5 4.21875V13.7812C1.5 14.2488 1.16562 14.625 0.75 14.625C0.334375 14.625 0 14.2488 0 13.7812V4.21875Z" fill="white"/>
</g>
<defs>
<clipPath id="clip0_683_215">
<rect width="18" height="18" fill="white"/>
</clipPath>
</defs>
</svg>
