<svg width="26" height="26" viewBox="0 0 26 26" fill="none" xmlns="http://www.w3.org/2000/svg">
<g id="Frame" clip-path="url(#clip0_241_1220)">
<g id="Group">
<path id="Vector" fill-rule="evenodd" clip-rule="evenodd" d="M2.97401 0.304688H14.304C15.2313 0.304688 15.5699 0.400537 15.9095 0.58338C16.2446 0.761667 16.5188 1.03592 16.6971 1.37101C16.8784 1.71065 16.9758 2.04664 16.9758 2.97649V14.3044C16.9758 15.2317 16.8784 15.5702 16.6971 15.9099C16.5188 16.245 16.2446 16.5192 15.9095 16.6975C15.5699 16.8788 15.2323 16.9762 14.304 16.9762H2.97401C2.04677 16.9762 1.70818 16.8788 1.36854 16.6975C1.03364 16.5191 0.759575 16.2449 0.581427 15.9099C0.400146 15.5702 0.302734 15.2327 0.302734 14.3044V2.9744C0.302734 2.04717 0.400667 1.70857 0.581427 1.36893C0.760924 1.03504 1.03465 0.761314 1.36854 0.581817C1.70818 0.400537 2.04573 0.305729 2.97401 0.305729V0.304688Z" fill="#FB8824"/>
<path id="Vector_2" fill-rule="evenodd" clip-rule="evenodd" d="M23.3293 26.0001H12.0009C11.0737 26.0001 10.7351 25.9043 10.3954 25.7214C10.0594 25.5443 9.78491 25.2698 9.60779 24.9338C9.42651 24.5941 9.3291 24.2581 9.3291 23.3283V12.0009C9.3291 11.0737 9.42495 10.7351 9.60779 10.3954C9.78491 10.0594 10.0594 9.78491 10.3954 9.60779C10.7351 9.42651 11.0726 9.3291 12.0009 9.3291H23.3288C24.2587 9.3291 24.5947 9.42703 24.9343 9.60779C25.2703 9.78491 25.5448 10.0594 25.7219 10.3954C25.9053 10.7351 26.0006 11.0726 26.0006 12.0009V23.3288C26.0006 24.2587 25.9048 24.5947 25.7219 24.9343C25.5448 25.2703 25.2703 25.5448 24.9343 25.7219C24.5947 25.9053 24.2587 26.0006 23.3288 26.0006L23.3293 26.0001Z" fill="#FB8824"/>
<path id="Vector_3" d="M9.44282 5.82768C9.1907 5.82768 8.98702 6.02927 8.98702 6.27567V8.25516L5.24108 4.55559C5.06188 4.38056 4.77486 4.38056 4.59618 4.55559C4.51075 4.63894 4.46387 4.75354 4.46387 4.87075C4.46527 4.98825 4.51279 5.1005 4.59618 5.1833L8.3442 8.88079H6.32564C6.07351 8.88079 5.86983 9.08238 5.86983 9.32878C5.86983 9.57517 6.0782 9.77677 6.32564 9.77677H9.44282C9.50215 9.77661 9.56089 9.76493 9.61577 9.74239C9.67083 9.72034 9.72096 9.68757 9.76326 9.64599C9.80555 9.6044 9.83917 9.55484 9.86216 9.50016C9.88569 9.44632 9.89741 9.38806 9.89654 9.3293V6.2715C9.89863 6.0251 9.69495 5.82351 9.44334 5.82351L9.44282 5.82768ZM16.9534 20.4176C17.2035 20.4176 17.4066 20.2181 17.4066 19.9696V17.9917L21.1547 21.6892C21.2404 21.7735 21.3558 21.8207 21.4761 21.8207C21.5963 21.8207 21.7117 21.7735 21.7975 21.6892C21.8397 21.6482 21.8733 21.5992 21.8964 21.5451C21.9195 21.491 21.9315 21.4328 21.9319 21.374C21.9319 21.2542 21.8829 21.1396 21.7975 21.0589L18.0469 17.3593H20.0654C20.3175 17.3593 20.5212 17.1598 20.5212 16.9113C20.5212 16.6628 20.3129 16.4659 20.0654 16.4659H16.9482C16.8883 16.4663 16.8289 16.478 16.7732 16.5003C16.669 16.5451 16.5737 16.6305 16.5268 16.7399C16.5045 16.7941 16.4929 16.8521 16.4924 16.9108V19.9686C16.4924 20.2171 16.7008 20.4166 16.9482 20.4166L16.9534 20.4176ZM11.6922 15.1563C11.5072 15.3397 11.2077 15.3397 11.0228 15.1563C10.8378 14.9729 10.8378 14.6698 11.0228 14.4791C11.1116 14.3905 11.232 14.3408 11.3575 14.3408C11.4829 14.3408 11.6033 14.3905 11.6922 14.4791C11.8771 14.6625 11.8771 14.9657 11.6922 15.1563ZM13.4497 13.4076C13.3609 13.4962 13.2405 13.5459 13.115 13.5459C12.9896 13.5459 12.8692 13.4962 12.7804 13.4076C12.6918 13.3187 12.642 13.1984 12.642 13.0729C12.642 12.9474 12.6918 12.8271 12.7804 12.7382C12.9637 12.5548 13.2648 12.5548 13.4497 12.7382C13.5383 12.8271 13.5881 12.9474 13.5881 13.0729C13.5881 13.1984 13.5383 13.3187 13.4497 13.4076ZM15.2 11.6552C15.1112 11.7438 14.9908 11.7935 14.8653 11.7935C14.7399 11.7935 14.6195 11.7438 14.5306 11.6552C14.4421 11.5664 14.3923 11.446 14.3923 11.3205C14.3923 11.195 14.4421 11.0747 14.5306 10.9858C14.6195 10.8972 14.7399 10.8475 14.8653 10.8475C14.9908 10.8475 15.1112 10.8972 15.2 10.9858C15.2886 11.0747 15.3384 11.195 15.3384 11.3205C15.3384 11.446 15.2886 11.5664 15.2 11.6552Z" fill="white"/>
</g>
</g>
<defs>
<clipPath id="clip0_241_1220">
<rect width="26" height="26.0009" fill="white"/>
</clipPath>
</defs>
</svg>
