<svg width="18" height="16" viewBox="0 0 18 16" fill="none" xmlns="http://www.w3.org/2000/svg">
<g id="Frame 47">
<path id="Vector" d="M2.22429 14.4033L4.83686 13.5806L5.30743 13.7966C6.39643 14.2953 7.641 14.561 9 14.561C13.4949 14.561 16.7143 11.5299 16.7143 7.88721C16.7143 4.23119 13.518 1.21342 9 1.21342C4.482 1.21342 1.28571 4.23119 1.28571 7.88721C1.29331 9.28631 1.78144 10.6454 2.67686 11.7604L3.11143 12.3065L2.22429 14.402V14.4033ZM1.31529 15.9686C1.19894 16.0054 1.07386 16.01 0.954836 15.9818C0.835809 15.9537 0.727802 15.894 0.643574 15.8098C0.559345 15.7255 0.502414 15.6203 0.479504 15.5066C0.456594 15.3928 0.468663 15.2752 0.514286 15.1677L1.64957 12.4897C0.586518 11.1644 0.00769091 9.54941 0 7.88721C0 3.86595 3.44829 0 9 0C14.5517 0 18 3.86595 18 7.88721C18 11.9085 14.5157 15.7744 9 15.7744C7.39929 15.7744 5.96957 15.4492 4.74686 14.8886L1.314 15.9686H1.31529Z" fill="white"/>
</g>
</svg>
