<svg width="26" height="26" viewBox="0 0 26 26" fill="none" xmlns="http://www.w3.org/2000/svg">
<g id="Frame" clip-path="url(#clip0_334_5531)">
<g id="Group 57">
<path id="Vector" d="M4.11842 0H21.5816C23.0138 0 23.5332 0.148846 24.0568 0.428869C24.5742 0.702728 24.9973 1.12582 25.2711 1.64319C25.5512 2.16683 25.7 2.68619 25.7 4.11842V21.5816C25.7 23.0138 25.5506 23.5332 25.2711 24.0568C24.9973 24.5742 24.5742 24.9973 24.0568 25.2711C23.5332 25.5512 23.0138 25.7 21.5816 25.7H4.11842C2.68619 25.7 2.16683 25.5506 1.64319 25.2711C1.12574 24.9971 0.702642 24.5738 0.428869 24.0563C0.148846 23.5332 0 23.0138 0 21.5816V4.11842C0 2.68619 0.148846 2.16683 0.428869 1.64319C0.70287 1.12574 1.12615 0.702642 1.64373 0.428869C2.16683 0.148846 2.68619 0 4.11842 0Z" fill="#4C634B"/>
<path id="Vector_2" d="M18.7316 12.5823C18.4318 12.5823 18.1887 12.3392 18.1887 12.0388V9.18668C18.1899 8.88652 18.0758 8.59735 17.8701 8.37874L14.641 5.49284C14.5425 5.38768 14.4235 5.30372 14.2914 5.24609C14.1593 5.18846 14.0169 5.15837 13.8727 5.15767H9.13375C8.53355 5.15767 8.04686 5.66953 8.04686 6.30025V7.47013C8.04686 7.61426 7.9896 7.75249 7.88768 7.85441C7.78577 7.95633 7.64754 8.01358 7.50341 8.01358C7.35928 8.01358 7.22105 7.95633 7.11913 7.85441C7.01722 7.75249 6.95996 7.61426 6.95996 7.47013V6.30025C6.96103 5.03827 7.93388 4.01562 9.13429 4.01562H13.8727C14.4494 4.01562 15.0025 4.25656 15.4094 4.6849L18.639 7.57133C19.0499 8.00858 19.2775 8.58669 19.2751 9.18668V12.0388C19.2751 12.3387 19.032 12.5823 18.7316 12.5823Z" fill="#E5F5D2"/>
<path id="Vector_3" d="M5.35449 14.4562C5.35449 14.2432 5.43911 14.0389 5.58972 13.8883C5.74034 13.7377 5.94462 13.6531 6.15762 13.6531H19.8107C20.0237 13.6531 20.228 13.7377 20.3786 13.8883C20.5293 14.0389 20.6139 14.2432 20.6139 14.4562V19.275C20.6139 19.488 20.5293 19.6922 20.3786 19.8428C20.228 19.9935 20.0237 20.0781 19.8107 20.0781H6.15762C5.94462 20.0781 5.74034 19.9935 5.58972 19.8428C5.43911 19.6922 5.35449 19.488 5.35449 19.275V14.4562Z" fill="white"/>
<path id="Vector_4" fill-rule="evenodd" clip-rule="evenodd" d="M10.4032 14.1885C10.9466 14.1885 11.352 14.3411 11.6063 14.6522C11.8044 14.8958 11.9211 15.2197 11.9586 15.6256L11.9688 15.7814L11.9714 15.9222V17.7801L11.9682 17.9337C11.9468 18.4076 11.8274 18.7851 11.6063 19.0635C11.3514 19.3847 10.9456 19.5427 10.4032 19.5427C10.128 19.5427 9.88813 19.5025 9.68467 19.4201C9.4834 19.3425 9.30766 19.2105 9.17709 19.0388C9.05662 18.8782 8.96882 18.6908 8.9142 18.4799C8.88208 18.3567 8.86013 18.2229 8.84728 18.0767L8.83817 17.9262L8.83496 17.7736V15.9184L8.83764 15.7792C8.85691 15.299 8.97578 14.9215 9.19904 14.6495C9.4523 14.34 9.85761 14.1885 10.4032 14.1885ZM14.1918 14.1885C14.6999 14.1885 15.0779 14.3277 15.314 14.6115C15.4966 14.831 15.6042 15.1255 15.6396 15.4944L15.6503 15.6363L15.653 15.7776V15.836C15.653 16.1197 15.4206 16.35 15.1347 16.35C15.0208 16.35 14.91 16.3124 14.8196 16.2431C14.7292 16.1738 14.6642 16.0766 14.6346 15.9666L14.6201 15.897L14.6164 15.8365L14.6159 15.6828L14.6089 15.4976L14.6019 15.4119L14.5971 15.3852L14.5666 15.2668L14.5527 15.2277C14.5512 15.2244 14.5494 15.2211 14.5473 15.2181C14.5286 15.1943 14.5084 15.1718 14.4868 15.1506C14.4756 15.1392 14.4621 15.1302 14.4472 15.1244C14.4129 15.1121 14.3776 15.1028 14.3417 15.0966C14.2942 15.0883 14.246 15.0843 14.1977 15.0848C14.1163 15.0848 14.0472 15.0934 13.991 15.1089C13.9523 15.1182 13.9165 15.1367 13.8866 15.163C13.8548 15.1925 13.8277 15.2268 13.8063 15.2647C13.7834 15.311 13.7682 15.3607 13.7613 15.4119L13.7447 15.5254L13.734 15.6325L13.7276 15.829V17.8443C13.7276 18.1763 13.7688 18.4028 13.84 18.5093C13.8979 18.5966 14.0114 18.6432 14.1977 18.6432C14.2748 18.6432 14.339 18.6357 14.3899 18.6212C14.4226 18.613 14.4526 18.5961 14.4766 18.5725C14.5065 18.5424 14.5321 18.5084 14.5527 18.4713C14.5728 18.4273 14.5856 18.3802 14.5907 18.3321L14.6078 18.1897L14.6137 18.0665L14.6164 17.8213C14.6164 17.5375 14.8488 17.3073 15.1347 17.3073C15.3703 17.3073 15.5732 17.4652 15.6348 17.6907L15.6492 17.7603L15.653 17.8218V17.8534C15.653 18.0494 15.6401 18.2266 15.6139 18.384C15.5882 18.543 15.5413 18.6979 15.4747 18.8445C15.4051 18.9965 15.3119 19.1234 15.1962 19.2257C15.0811 19.3274 14.9371 19.4056 14.7647 19.4613C14.5971 19.5159 14.406 19.5427 14.1918 19.5427C13.9616 19.5427 13.7576 19.5121 13.5782 19.45C13.4097 19.3953 13.2546 19.3055 13.1231 19.1866C13.0007 19.0702 12.9025 18.9309 12.834 18.7765C12.7627 18.6203 12.7132 18.4551 12.6867 18.2855C12.6732 18.1985 12.6633 18.111 12.6573 18.0232L12.6503 17.8802L12.6477 17.7356V16.0078C12.6477 15.7921 12.661 15.5988 12.6884 15.428C12.7162 15.2508 12.7655 15.0848 12.8351 14.9301C12.9089 14.7678 13.0064 14.6318 13.1279 14.5237C13.25 14.4155 13.4021 14.3325 13.583 14.2742C13.7802 14.214 13.9857 14.1851 14.1918 14.1885ZM18.8521 14.5826C18.5753 14.3486 18.1587 14.2356 17.6046 14.2356H16.8914L16.8287 14.2399L16.7634 14.2538C16.6603 14.2811 16.5691 14.3417 16.5038 14.4261C16.4386 14.5105 16.403 14.614 16.4025 14.7207V18.9575L16.4068 19.0212L16.4197 19.087C16.4492 19.2023 16.5163 19.3045 16.6103 19.3774C16.7044 19.4503 16.82 19.4898 16.939 19.4897L17.0033 19.4854L17.0793 19.4709L17.1478 19.4468L17.2116 19.4147C17.2917 19.3683 17.3583 19.3016 17.4047 19.2214C17.451 19.1411 17.4754 19.0501 17.4755 18.9575V17.1959H17.7015L18.2347 19.0324L18.2604 19.1031L18.3001 19.1786C18.4162 19.3713 18.6224 19.4891 18.8483 19.4891C18.9645 19.4896 19.0762 19.4438 19.1587 19.362C19.2412 19.2802 19.2879 19.169 19.2884 19.0528L19.2847 18.9998L19.2793 18.9644L18.6877 16.9593L18.776 16.9084C19.1112 16.69 19.2761 16.2836 19.2761 15.7128C19.2761 15.2042 19.1369 14.823 18.8521 14.5826ZM10.4032 15.0848C10.2881 15.0848 10.1971 15.1003 10.1312 15.1276C10.081 15.1474 10.0392 15.1839 10.0129 15.231C9.97581 15.2971 9.95045 15.3692 9.93792 15.4441C9.92989 15.4869 9.924 15.5367 9.92025 15.5918L9.91597 15.6791L9.91436 15.7808V17.9182L9.91597 18.0226C9.91864 18.1179 9.92614 18.1993 9.93738 18.2662C9.9513 18.3476 9.977 18.421 10.0134 18.4868C10.0413 18.5372 10.0803 18.573 10.1333 18.5977C10.1992 18.6271 10.2897 18.6432 10.4032 18.6432C10.5167 18.6432 10.6061 18.6271 10.6709 18.5977C10.7229 18.5755 10.7659 18.5364 10.793 18.4868C10.8294 18.421 10.8551 18.3476 10.869 18.2662C10.8765 18.2213 10.8824 18.1699 10.8861 18.1136L10.8904 18.0242L10.892 17.9209V15.784L10.8904 15.6812C10.8888 15.602 10.8816 15.5229 10.869 15.4446C10.8565 15.3698 10.8311 15.2977 10.7941 15.2315C10.7675 15.1845 10.7255 15.1482 10.6752 15.1287C10.5882 15.0969 10.4958 15.0824 10.4032 15.0859V15.0848ZM17.4755 15.0912L17.6013 15.0901L17.6977 15.0928L17.7834 15.0992C17.9472 15.1153 18.057 15.1565 18.1105 15.2133C18.186 15.2931 18.2305 15.4606 18.2305 15.7128C18.2305 15.9698 18.1807 16.1358 18.0945 16.2118L18.0559 16.2408C17.9563 16.305 17.7898 16.3409 17.558 16.3409L17.4755 16.3403V15.0912Z" fill="#4C634B"/>
<path id="Vector_5" fill-rule="evenodd" clip-rule="evenodd" d="M6.69238 21.6844V12.0469H7.49551V21.6844H6.69238Z" fill="white"/>
<path id="Vector_6" fill-rule="evenodd" clip-rule="evenodd" d="M6.69238 20.0781V13.6531H7.49551V20.0781H6.69238Z" fill="#4C634B"/>
<path id="Vector_7" fill-rule="evenodd" clip-rule="evenodd" d="M5.35449 21.8182C5.35449 21.7117 5.3968 21.6096 5.47211 21.5343C5.54741 21.459 5.64955 21.4167 5.75605 21.4167H8.43314C8.53964 21.4167 8.64178 21.459 8.71709 21.5343C8.79239 21.6096 8.8347 21.7117 8.8347 21.8182C8.8347 21.9247 8.79239 22.0269 8.71709 22.1022C8.64178 22.1775 8.53964 22.2198 8.43314 22.2198H5.75605C5.64955 22.2198 5.54741 22.1775 5.47211 22.1022C5.3968 22.0269 5.35449 21.9247 5.35449 21.8182ZM5.35449 11.913C5.35449 11.8065 5.3968 11.7044 5.47211 11.6291C5.54741 11.5538 5.64955 11.5115 5.75605 11.5115H8.43314C8.53964 11.5115 8.64178 11.5538 8.71709 11.6291C8.79239 11.7044 8.8347 11.8065 8.8347 11.913C8.8347 12.0195 8.79239 12.1217 8.71709 12.197C8.64178 12.2723 8.53964 12.3146 8.43314 12.3146H5.75605C5.64955 12.3146 5.54741 12.2723 5.47211 12.197C5.3968 12.1217 5.35449 12.0195 5.35449 11.913Z" fill="white"/>
<path id="Vector_8" d="M13.9209 4.01562L16.598 6.69271L18.7396 9.36979H15.2594C14.9044 9.36979 14.564 9.22877 14.3129 8.97774C14.0619 8.72672 13.9209 8.38625 13.9209 8.03125V4.01562Z" fill="#E5F5D2"/>
</g>
</g>
<defs>
<clipPath id="clip0_334_5531">
<rect width="26" height="26" fill="white"/>
</clipPath>
</defs>
</svg>
