<svg width="26" height="26" viewBox="0 0 26 26" fill="none" xmlns="http://www.w3.org/2000/svg">
<g id="Frame" clip-path="url(#clip0_334_5559)">
<g id="Group 60">
<path id="Vector" fill-rule="evenodd" clip-rule="evenodd" d="M16.6147 8.0472H11.7059C10.4327 8.0472 9.97116 8.17981 9.50599 8.42859C9.04655 8.67276 8.67091 9.04912 8.42761 9.50902C8.17883 9.97265 8.04622 10.4342 8.04622 11.7074V16.6161H2.66254C1.73733 16.6161 1.40169 16.52 1.06245 16.3385C0.728402 16.161 0.455067 15.8877 0.277562 15.5537C0.0966327 15.2134 0 14.8778 0 13.9526V2.66252C0 1.73732 0.0966327 1.40168 0.277562 1.06244C0.454848 0.728282 0.728005 0.454769 1.06193 0.277047C1.40169 0.0966322 1.73733 0 2.66254 0H13.9526C14.8778 0 15.2135 0.0966322 15.5527 0.277561C15.8868 0.455064 16.1601 0.728398 16.3376 1.06244C16.5185 1.40168 16.6152 1.73732 16.6152 2.66252L16.6147 8.0472Z" fill="#F3D9CC"/>
<path id="Vector_2" d="M7.44058 3.86535C7.44058 3.62017 7.23755 3.42177 6.98671 3.42177C6.73588 3.42177 6.53285 3.62068 6.53285 3.86535V5.84117L3.8883 3.24649C3.80278 3.16267 3.68781 3.11572 3.56807 3.11572C3.44833 3.11572 3.33336 3.16267 3.24785 3.24649C3.16149 3.32873 3.11523 3.44181 3.11523 3.56003C3.11523 3.67825 3.16663 3.79287 3.24785 3.87511L5.8924 6.47082H3.88007C3.62924 6.47082 3.42621 6.66974 3.42621 6.91646C3.42621 7.16318 3.62924 7.36004 3.88007 7.36004H6.98825C7.04822 7.36085 7.10771 7.3493 7.16302 7.32612C7.27353 7.28191 7.36193 7.19556 7.4082 7.08454C7.4339 7.03211 7.44212 6.97403 7.44212 6.91594L7.44418 3.86586L7.44058 3.86535Z" fill="#D04526"/>
<g id="Group">
<path id="Vector_3" fill-rule="evenodd" clip-rule="evenodd" d="M11.7475 9.08548H23.0376C23.9628 9.08548 24.2984 9.18211 24.6377 9.36458C24.9708 9.54139 25.2463 9.81433 25.4226 10.1495C25.6035 10.4866 25.7001 10.8228 25.7001 11.748V23.0375C25.7001 23.9627 25.604 24.2984 25.4226 24.6376C25.2451 24.9716 24.9717 25.245 24.6377 25.4225C24.2984 25.6034 23.9633 25.7 23.0376 25.7H11.7475C10.8223 25.7 10.4867 25.6039 10.1474 25.4225C9.81433 25.2457 9.54088 24.9702 9.36252 24.6376C9.18159 24.2984 9.08496 23.9632 9.08496 23.0375V11.7475C9.08496 10.8223 9.18159 10.4866 9.36252 10.1474C9.5414 9.81433 9.81485 9.54088 10.1474 9.36252C10.4867 9.18159 10.8223 9.08496 11.7475 9.08496V9.08548Z" fill="#FB8824"/>
<path id="Vector_4" fill-rule="evenodd" clip-rule="evenodd" d="M19.7199 17.8092C19.1612 18.2728 18.4149 18.5041 17.4794 18.5041H16.6477V21.0741H14.9053V13.6211H17.6362C19.5843 13.6211 20.5598 14.4127 20.5598 15.9958C20.5598 16.7426 20.2807 17.3491 19.7205 17.8128L19.7199 17.8092ZM17.3828 14.9061H16.7043V17.2191H17.3828C18.3003 17.2191 18.7603 16.8295 18.7603 16.0508C18.7603 15.288 18.3028 14.9061 17.3828 14.9061Z" fill="white"/>
</g>
</g>
</g>
<defs>
<clipPath id="clip0_334_5559">
<rect width="26" height="26" fill="white"/>
</clipPath>
</defs>
</svg>
