<svg width="18" height="18" viewBox="0 0 18 18" fill="none" xmlns="http://www.w3.org/2000/svg">
<g id="Frame" clip-path="url(#clip0_207_290)">
<path id="Vector" d="M2.75 8H17.75C17.9489 8 18.1397 7.92098 18.2803 7.78033C18.421 7.63968 18.5 7.44891 18.5 7.25V5C18.5001 4.90148 18.4807 4.80391 18.4431 4.71286C18.4055 4.62182 18.3503 4.53908 18.2806 4.46938L13.0306 -0.780625C12.9609 -0.850251 12.8782 -0.905461 12.7871 -0.943102C12.6961 -0.980743 12.5985 -1.00008 12.5 -1H3.5C3.10218 -1 2.72064 -0.841965 2.43934 -0.56066C2.15804 -0.279355 2 0.102175 2 0.5V7.25C2 7.44891 2.07902 7.63968 2.21967 7.78033C2.36032 7.92098 2.55109 8 2.75 8ZM12.5 0.875L16.625 5H12.5V0.875ZM19.25 11C19.25 11.1989 19.171 11.3897 19.0303 11.5303C18.8897 11.671 18.6989 11.75 18.5 11.75H16.25V13.25H17.75C17.9489 13.25 18.1397 13.329 18.2803 13.4697C18.421 13.6103 18.5 13.8011 18.5 14C18.5 14.1989 18.421 14.3897 18.2803 14.5303C18.1397 14.671 17.9489 14.75 17.75 14.75H16.25V16.25C16.25 16.4489 16.171 16.6397 16.0303 16.7803C15.8897 16.921 15.6989 17 15.5 17C15.3011 17 15.1103 16.921 14.9697 16.7803C14.829 16.6397 14.75 16.4489 14.75 16.25V11C14.75 10.8011 14.829 10.6103 14.9697 10.4697C15.1103 10.329 15.3011 10.25 15.5 10.25H18.5C18.6989 10.25 18.8897 10.329 19.0303 10.4697C19.171 10.6103 19.25 10.8011 19.25 11ZM4.25 10.25H2.75C2.55109 10.25 2.36032 10.329 2.21967 10.4697C2.07902 10.6103 2 10.8011 2 11V16.25C2 16.4489 2.07902 16.6397 2.21967 16.7803C2.36032 16.921 2.55109 17 2.75 17C2.94891 17 3.13968 16.921 3.28033 16.7803C3.42098 16.6397 3.5 16.4489 3.5 16.25V15.5H4.25C4.94619 15.5 5.61387 15.2234 6.10616 14.7312C6.59844 14.2389 6.875 13.5712 6.875 12.875C6.875 12.1788 6.59844 11.5111 6.10616 11.0188C5.61387 10.5266 4.94619 10.25 4.25 10.25ZM4.25 14H3.5V11.75H4.25C4.54837 11.75 4.83452 11.8685 5.0455 12.0795C5.25647 12.2905 5.375 12.5766 5.375 12.875C5.375 13.1734 5.25647 13.4595 5.0455 13.6705C4.83452 13.8815 4.54837 14 4.25 14ZM10.25 10.25H8.75C8.55109 10.25 8.36032 10.329 8.21967 10.4697C8.07902 10.6103 8 10.8011 8 11V16.25C8 16.4489 8.07902 16.6397 8.21967 16.7803C8.36032 16.921 8.55109 17 8.75 17H10.25C11.1451 17 12.0035 16.6444 12.6365 16.0115C13.2694 15.3785 13.625 14.5201 13.625 13.625C13.625 12.7299 13.2694 11.8715 12.6365 11.2385C12.0035 10.6056 11.1451 10.25 10.25 10.25ZM10.25 15.5H9.5V11.75H10.25C10.7473 11.75 11.2242 11.9475 11.5758 12.2992C11.9275 12.6508 12.125 13.1277 12.125 13.625C12.125 14.1223 11.9275 14.5992 11.5758 14.9508C11.2242 15.3025 10.7473 15.5 10.25 15.5Z" fill="white"/>
</g>
<defs>
<clipPath id="clip0_207_290">
<rect width="18" height="18" fill="white"/>
</clipPath>
</defs>
</svg>
