<svg width="26" height="26" viewBox="0 0 26 26" fill="none" xmlns="http://www.w3.org/2000/svg">
<g id="Frame" clip-path="url(#clip0_241_961)">
<g id="Group">
<path id="Vector" d="M4.112 0H21.588C23.0015 0 23.5412 0.1542 24.0552 0.4369C24.5692 0.7196 24.9804 1.1308 25.2631 1.6448C25.5458 2.1588 25.7 2.6985 25.7 4.112V21.588C25.7 23.0015 25.5458 23.5412 25.2631 24.0552C24.9804 24.5692 24.5692 24.9804 24.0552 25.2631C23.5412 25.5458 23.0015 25.7 21.588 25.7H4.112C2.6985 25.7 2.1588 25.5458 1.6448 25.2631C1.1308 24.9804 0.7196 24.5692 0.4369 24.0552C0.1542 23.5412 0 23.0015 0 21.588V4.112C0 2.6985 0.1542 2.1588 0.4369 1.6448C0.7196 1.1308 1.1308 0.7196 1.6448 0.4369C2.1588 0.1542 2.6985 0 4.112 0Z" fill="#AB6993"/>
<path id="Vector_2" d="M4.112 0H21.588C23.0015 0 23.5412 0.1542 24.0552 0.4369C24.5692 0.7196 24.9804 1.1308 25.2631 1.6448C25.5458 2.1588 25.7 2.6985 25.7 4.112V21.588C25.7 23.0015 25.5458 23.5412 25.2631 24.0552C24.9804 24.5692 24.5692 24.9804 24.0552 25.2631C23.5412 25.5458 23.0015 25.7 21.588 25.7H4.112C2.6985 25.7 2.1588 25.5458 1.6448 25.2631C1.1308 24.9804 0.7196 24.5692 0.4369 24.0552C0.1542 23.5412 0 23.0015 0 21.588V4.112C0 2.6985 0.1542 2.1588 0.4369 1.6448C0.7196 1.1308 1.1308 0.7196 1.6448 0.4369C2.1588 0.1542 2.6985 0 4.112 0Z" fill="#0404AC"/>
<g id="Group_2">
<path id="Vector_3" d="M8.88384 11.7426L8.6751 19.2488C8.69391 19.319 8.72557 19.367 8.78294 19.3704C8.8403 19.3739 8.87541 19.3644 8.90111 19.3199L11.3041 15.1579C10.847 14.716 10.7385 14.0301 11.0597 13.4737C11.4324 12.8282 12.2749 12.6025 12.9204 12.9751C13.5881 13.3606 13.8139 14.2032 13.4412 14.8486C13.12 15.4051 12.4495 15.6412 11.8382 15.4663L9.43527 19.6283C9.40957 19.6728 9.42839 19.7431 9.49516 19.7816C9.51741 19.7945 9.57478 19.7979 9.60988 19.7885L16.006 15.8546C16.1979 15.728 16.3007 15.5499 16.3367 15.3333L16.7877 10.6972C16.8272 10.4232 16.7039 10.174 16.4591 10.0327L13.6993 8.43928C13.4544 8.29793 13.177 8.31582 12.9372 8.47414L9.16999 11.1956C9.00042 11.3351 8.89762 11.5132 8.88384 11.7426Z" fill="white"/>
<path id="Vector_4" d="M17.3841 9.97332L13.2888 7.60892C13.0885 7.49327 13.039 7.1679 13.1932 6.90082L14.1441 5.25381C14.2983 4.98673 14.6048 4.86696 14.8051 4.98261L18.9004 7.34701C19.123 7.47551 19.1725 7.80088 19.0183 8.06796L18.0674 9.71497C17.9132 9.98205 17.6067 10.1018 17.3841 9.97332Z" fill="white"/>
</g>
</g>
</g>
<defs>
<clipPath id="clip0_241_961">
<rect width="26" height="26" fill="white"/>
</clipPath>
</defs>
</svg>
