<svg width="18" height="18" viewBox="0 0 18 18" fill="none" xmlns="http://www.w3.org/2000/svg">
<g id="Group 78">
<path id="Vector" d="M16.7124 13.3674V4.63281C17.1022 4.42053 17.4275 4.1074 17.654 3.72634C17.8806 3.34528 18.0001 2.91035 18 2.46728C18 1.10468 16.8928 1.18898e-07 15.5271 1.18898e-07C15.1262 -0.000124113 14.7314 0.0971079 14.3766 0.283299C14.0219 0.469489 13.7179 0.739041 13.4909 1.06867H4.50908C4.28211 0.739041 3.97812 0.469489 3.62338 0.283299C3.26863 0.0971079 2.87378 -0.000124113 2.47294 1.18898e-07C1.10721 1.18898e-07 9.94586e-08 1.10468 9.94586e-08 2.46728C9.94586e-08 3.40142 0.52037 4.21406 1.28763 4.63281V13.3672C0.89783 13.5795 0.572544 13.8926 0.345963 14.2737C0.119382 14.6547 -0.000125855 15.0896 9.94586e-08 15.5327C9.94586e-08 16.8953 1.10721 18 2.47294 18C3.5106 18 4.3975 17.3617 4.76452 16.4576H13.2352C13.6023 17.3614 14.4892 18 15.5268 18C16.8926 18 17.9998 16.8953 17.9998 15.5327C17.9998 14.5988 17.4794 13.7864 16.7124 13.3674ZM3.65565 13.3658V4.63447C4.14572 4.36755 4.53128 3.94356 4.75004 3.43103H13.2502C13.469 3.94352 13.8546 4.36749 14.3446 4.63447V13.3658C14.0184 13.5443 13.7367 13.7937 13.5201 14.0955H4.48012C4.2636 13.7937 3.98182 13.5443 3.65565 13.3658Z" fill="#707078"/>
</g>
</svg>
