<svg width="26" height="26" viewBox="0 0 26 26" fill="none" xmlns="http://www.w3.org/2000/svg">
<g id="Frame" clip-path="url(#clip0_334_5514)">
<g id="Group 54">
<path id="Vector" fill-rule="evenodd" clip-rule="evenodd" d="M4.11817 0H21.5823C23.0138 0 23.534 0.149057 24.0562 0.429695C24.5743 0.702819 24.9977 1.12619 25.2708 1.64425C25.5509 2.16647 25.7 2.68662 25.7 4.11809V21.5819C25.7 23.0134 25.5509 23.5335 25.2703 24.0557C24.9972 24.5738 24.5738 24.9972 24.0557 25.2703C23.5335 25.5515 23.0138 25.7 21.5823 25.7H4.11817C2.68668 25.7 2.16651 25.5509 1.64274 25.2703C1.11898 24.9897 0.70932 24.579 0.429704 24.0547C0.150088 23.5305 0 23.0129 0 21.5814V4.11809C0 2.68662 0.14906 2.16647 0.429704 1.64477C0.70275 1.12652 1.12614 0.702955 1.64429 0.429695C2.16651 0.149057 2.68668 0 4.11817 0Z" fill="#800020"/>
<path id="Vector_2" d="M11.6676 11.5764C11.6676 12.02 11.1053 13.1302 10.5831 13.9757C10.5588 14.0156 10.5427 14.0599 10.5358 14.1061C10.5289 14.1523 10.5314 14.1993 10.543 14.2445C10.5831 14.3869 10.7116 14.4861 10.8565 14.4861H14.84C14.9006 14.4862 14.9599 14.4693 15.0114 14.4373C15.0628 14.4053 15.1042 14.3595 15.1309 14.3052C15.1583 14.2505 15.1701 14.1894 15.1651 14.1285C15.1601 14.0676 15.1385 14.0093 15.1027 13.9598C14.3599 12.9472 14.0233 12.2133 14.0233 11.5785C14.0233 10.9437 14.3548 10.2113 15.0996 9.19511C15.4409 8.7135 15.6198 8.14503 15.6198 7.55291C15.6198 6.00067 14.3748 4.73779 12.8452 4.73779C11.3155 4.73779 10.0706 5.99707 10.0706 7.55086C10.0689 8.14095 10.2523 8.71671 10.5949 9.19717C11.3351 10.2097 11.6671 10.9437 11.6671 11.5769L11.6676 11.5764ZM18.8739 14.9431H6.81854C6.73147 14.944 6.64833 14.9794 6.58734 15.0416C6.52635 15.1037 6.49249 15.1875 6.49317 15.2746V18.5975C6.49317 18.7784 6.63966 18.929 6.81854 18.929H18.8739C18.961 18.9281 19.0441 18.8927 19.1051 18.8305C19.1661 18.7684 19.1999 18.6846 19.1993 18.5975V15.2756C19.1993 15.0947 19.0528 14.9441 18.8739 14.9441V14.9431ZM17.0327 19.4148H8.66739C8.58033 19.4157 8.49719 19.4511 8.4362 19.5133C8.37521 19.5754 8.34135 19.6592 8.34203 19.7463V20.12C8.34203 20.3009 8.48852 20.4515 8.66739 20.4515H17.0317C17.1188 20.4505 17.2019 20.4151 17.2629 20.353C17.3239 20.2908 17.3578 20.207 17.3571 20.12V19.7463C17.3571 19.5654 17.2106 19.4148 17.0317 19.4148H17.0327Z" fill="white"/>
</g>
</g>
<defs>
<clipPath id="clip0_334_5514">
<rect width="26" height="26" fill="white"/>
</clipPath>
</defs>
</svg>
