<svg width="17" height="23" viewBox="0 0 17 23" fill="none" xmlns="http://www.w3.org/2000/svg">
<g id="Frame" clip-path="url(#clip0_325_5049)">
<path id="Vector" fill-rule="evenodd" clip-rule="evenodd" d="M14.654 0H2.346L2.163 0.008C0.92 0.126 0 1.242 0 2.563V20.438C0 21.84 1.037 23 2.346 23H14.654L14.837 22.992C16.08 22.874 17 21.758 17 20.437V2.563C17 1.16 15.963 0 14.654 0Z" fill="#616871"/>
<path id="Vector_2" fill-rule="evenodd" clip-rule="evenodd" d="M2.234 1.005L2.37 1H14.654C15.384 1 16 1.688 16 2.563V5.296V5.348V20.448C16 21.273 15.45 21.94 14.766 22.005L14.63 22H2.346C1.616 22 1 21.312 1 20.437V2.563C1 1.738 1.55 1.071 2.234 1.006V1.005Z" fill="white"/>
<path id="Vector_3" fill-rule="evenodd" clip-rule="evenodd" d="M8.01549 11.0152V8.15523L7.48549 8.68523C7.29749 8.87323 6.98949 8.87323 6.80149 8.68523C6.61349 8.49723 6.60149 8.18523 6.80249 7.99923L8.15549 6.64623C8.2 6.60023 8.25327 6.56359 8.31215 6.53848C8.37103 6.51337 8.43434 6.50028 8.49836 6.5C8.56237 6.49973 8.6258 6.51225 8.6849 6.53685C8.744 6.56145 8.79758 6.59762 8.84249 6.64323L10.1955 7.99523C10.3905 8.18323 10.3915 8.49523 10.2005 8.69523C10.1089 8.78501 9.98575 8.8353 9.85749 8.8353C9.72923 8.8353 9.60609 8.78501 9.51449 8.69523L8.98649 8.16523V11.0252H11.8465L11.3165 10.4952C11.1285 10.3072 11.1285 9.99923 11.3165 9.81123C11.5045 9.62323 11.8165 9.61123 12.0025 9.81223L13.3555 11.1652C13.4015 11.2097 13.4381 11.263 13.4632 11.3219C13.4884 11.3808 13.5014 11.4441 13.5017 11.5081C13.502 11.5721 13.4895 11.6355 13.4649 11.6946C13.4403 11.7537 13.4041 11.8073 13.3585 11.8522L12.0065 13.2052C11.8185 13.4002 11.5065 13.4012 11.3065 13.2102C11.2167 13.1186 11.1664 12.9955 11.1664 12.8672C11.1664 12.739 11.2167 12.6158 11.3065 12.5242L11.8365 11.9962H8.97649V14.8562L9.50649 14.3242C9.69849 14.1392 10.0035 14.1392 10.1905 14.3262C10.3775 14.5132 10.3905 14.8282 10.1885 15.0142L8.83549 16.3672C8.79068 16.4133 8.73708 16.4499 8.67787 16.4748C8.61865 16.4998 8.55503 16.5126 8.49078 16.5125C8.42652 16.5124 8.36294 16.4994 8.3038 16.4743C8.24466 16.4492 8.19117 16.4124 8.14649 16.3662L6.79449 15.0142C6.60149 14.8262 6.60149 14.5162 6.79249 14.3262C6.98349 14.1362 7.28849 14.1382 7.47649 14.3262L8.00649 14.8562V11.9962H5.14649L5.67849 12.5262C5.86349 12.7182 5.86349 13.0232 5.67649 13.2102C5.48949 13.3972 5.17449 13.4102 4.98849 13.2082L3.63549 11.8552C3.58944 11.8104 3.55285 11.7568 3.5279 11.6976C3.50295 11.6384 3.49014 11.5748 3.49023 11.5105C3.49033 11.4463 3.50332 11.3827 3.52844 11.3235C3.55357 11.2644 3.59031 11.2109 3.63649 11.1662L4.98849 9.81423C5.17649 9.62123 5.48649 9.62123 5.67649 9.81223C5.86649 10.0032 5.86449 10.3082 5.67649 10.4962L5.14649 11.0262H8.00649L8.01549 11.0152Z" fill="#707078"/>
</g>
<defs>
<clipPath id="clip0_325_5049">
<rect width="17" height="23" fill="white"/>
</clipPath>
</defs>
</svg>
