<svg width="26" height="26" viewBox="0 0 26 26" fill="none" xmlns="http://www.w3.org/2000/svg">
<g id="Frame" clip-path="url(#clip0_334_5519)">
<g id="Group 55">
<path id="Vector" fill-rule="evenodd" clip-rule="evenodd" d="M4.11821 0H21.5815C23.0136 0 23.533 0.14906 24.0565 0.42919C24.58 0.70932 24.9909 1.12001 25.2708 1.64351C25.5507 2.16702 25.7 2.68642 25.7 4.11842V21.5816C25.7 23.0136 25.5509 23.533 25.2708 24.0565C24.9907 24.58 24.58 24.9909 24.0565 25.2708C23.533 25.5507 23.0136 25.7 21.5815 25.7H4.11821C2.68619 25.7 2.16679 25.5509 1.64327 25.2708C1.11976 24.9907 0.709327 24.58 0.429194 24.0565C0.149061 23.533 0 23.0138 0 21.5818V4.11868C0 2.68668 0.149061 2.16728 0.429194 1.64377C0.709327 1.12026 1.12002 0.70932 1.64353 0.42919C2.16705 0.14906 2.68619 0 4.11821 0Z" fill="#0404AC"/>
<path id="Vector_2" d="M18.1464 11.3482H10.3464L10.3549 8.64914C10.4011 8.07551 10.7087 7.49624 11.1773 7.09943C11.6651 6.68746 12.2289 6.49034 12.8868 6.49702C12.9649 6.49776 13.0429 6.50145 13.1207 6.50807C14.2993 6.60316 15.2795 7.55869 15.3515 8.68383C15.3592 8.79434 15.3551 8.88943 15.3502 9.10428L15.3374 9.76889C15.3361 9.85799 15.3523 9.94647 15.3853 10.0293C15.4182 10.1121 15.4671 10.1876 15.5292 10.2515C15.5913 10.3154 15.6653 10.3665 15.7472 10.4018C15.829 10.437 15.917 10.4559 16.0061 10.4571C16.387 10.454 16.6889 10.1629 16.6943 9.78842L16.7067 9.13564C16.7126 8.8807 16.7154 8.75219 16.7056 8.59594C16.5908 6.81416 15.0634 5.30248 13.2292 5.15214C13.1187 5.1434 13.0087 5.13826 12.9002 5.13672H12.8532C11.8843 5.13672 11.0259 5.44717 10.3004 6.06012C9.562 6.68514 9.07626 7.61112 9.00173 8.5358C8.99659 8.59363 8.98271 8.77353 8.98888 11.3448H7.55429C7.3564 11.3448 7.19629 11.5054 7.19629 11.7028V19.2907C7.19629 19.4886 7.35692 19.6487 7.55429 19.6487H18.1464C18.3443 19.6487 18.5044 19.4881 18.5044 19.2907V11.7064C18.5044 11.5085 18.3443 11.3484 18.1464 11.3484V11.3482ZM13.728 17.4915H11.9727L12.2407 15.3152C11.9822 15.1335 11.8141 14.8398 11.8141 14.5082C11.8141 13.957 12.278 13.51 12.8506 13.51C13.4232 13.51 13.8871 13.9572 13.8871 14.5082C13.8871 14.8423 13.7193 15.1338 13.4605 15.3152L13.728 17.4915Z" fill="white"/>
</g>
</g>
<defs>
<clipPath id="clip0_334_5519">
<rect width="26" height="26" fill="white"/>
</clipPath>
</defs>
</svg>
