<svg width="24" height="24" viewBox="0 0 24 24" fill="none" xmlns="http://www.w3.org/2000/svg">
<g id="Frame" clip-path="url(#clip0_325_5020)">
<g id="Group">
<path id="Vector" d="M20.308 24C22.347 24 24 22.347 24 20.308V3.693C24 1.653 22.347 0 20.308 0H3.692C1.653 0 0 1.653 0 3.692V20.308C0 22.347 1.653 24 3.692 24H20.307H20.308Z" fill="#707078"/>
<path id="Vector_2" d="M20.193 23H3.807C3.09134 22.9992 2.40293 22.7255 1.88223 22.2345C1.36154 21.7435 1.04779 21.0724 1.005 20.358L1 20.193V3.807C1.00076 3.09134 1.27455 2.40293 1.76551 1.88223C2.25648 1.36153 2.92762 1.04778 3.642 1.005L3.807 1H20.193C20.9087 1.00076 21.5971 1.27455 22.1178 1.76551C22.6385 2.25648 22.9522 2.92762 22.995 3.642L23 3.807V20.193C22.9992 20.9087 22.7255 21.5971 22.2345 22.1178C21.7435 22.6385 21.0724 22.9522 20.358 22.995L20.193 23Z" fill="white"/>
<path id="Vector_3" d="M14.7632 13.7962C14.8978 13.9327 15.0806 14.0108 15.2723 14.0136C15.464 14.0164 15.649 13.9437 15.7876 13.8112C15.9261 13.6787 16.0069 13.4971 16.0127 13.3055C16.0184 13.1139 15.9485 12.9277 15.8182 12.7872L12.3182 9.1272C12.25 9.05596 12.1682 8.99926 12.0775 8.96053C11.9868 8.92179 11.8893 8.90183 11.7907 8.90183C11.6921 8.90183 11.5945 8.92179 11.5039 8.96053C11.4132 8.99926 11.3313 9.05596 11.2632 9.1272L7.76318 12.7872C7.63282 12.9277 7.56296 13.1139 7.56869 13.3055C7.57442 13.4971 7.65527 13.6787 7.7938 13.8112C7.93233 13.9437 8.11741 14.0164 8.30907 14.0136C8.50073 14.0108 8.6836 13.9327 8.81818 13.7962L11.7912 10.6882L14.7642 13.7962H14.7632Z" fill="#707078"/>
</g>
</g>
<defs>
<clipPath id="clip0_325_5020">
<rect width="24" height="24" fill="white"/>
</clipPath>
</defs>
</svg>
