<svg width="18" height="18" viewBox="0 0 18 18" fill="none" xmlns="http://www.w3.org/2000/svg">
<g id="Frame 14">
<path id="Vector" d="M9 1.6875C10.9394 1.6875 12.7994 2.45792 14.1707 3.82928C15.5421 5.20064 16.3125 7.0606 16.3125 9C16.3125 10.9394 15.5421 12.7994 14.1707 14.1707C12.7994 15.5421 10.9394 16.3125 9 16.3125C7.0606 16.3125 5.20064 15.5421 3.82928 14.1707C2.45792 12.7994 1.6875 10.9394 1.6875 9C1.6875 7.0606 2.45792 5.20064 3.82928 3.82928C5.20064 2.45792 7.0606 1.6875 9 1.6875ZM9 18C11.3869 18 13.6761 17.0518 15.364 15.364C17.0518 13.6761 18 11.3869 18 9C18 6.61305 17.0518 4.32387 15.364 2.63604C13.6761 0.948212 11.3869 0 9 0C6.61305 0 4.32387 0.948212 2.63604 2.63604C0.948212 4.32387 0 6.61305 0 9C0 11.3869 0.948212 13.6761 2.63604 15.364C4.32387 17.0518 6.61305 18 9 18ZM8.15625 12.0938C8.15625 12.5613 8.53242 12.9375 9 12.9375C9.46758 12.9375 9.84375 12.5613 9.84375 12.0938V9.84375H12.0938C12.5613 9.84375 12.9375 9.46758 12.9375 9C12.9375 8.53242 12.5613 8.15625 12.0938 8.15625H9.84375V5.90625C9.84375 5.43867 9.46758 5.0625 9 5.0625C8.53242 5.0625 8.15625 5.43867 8.15625 5.90625V8.15625H5.90625C5.43867 8.15625 5.0625 8.53242 5.0625 9C5.0625 9.46758 5.43867 9.84375 5.90625 9.84375H8.15625V12.0938Z" fill="#303030"/>
</g>
</svg>
