<svg width="19" height="18" viewBox="0 0 19 18" fill="none" xmlns="http://www.w3.org/2000/svg">
<g id="Frame">
<path id="Vector" d="M13.8645 11.3208H13.0515L12.7633 11.0429C13.8067 9.83261 14.3802 8.28751 14.3791 6.68954C14.3791 5.36647 13.9867 4.07312 13.2517 2.97303C12.5166 1.87294 11.4719 1.01553 10.2495 0.509214C9.02716 0.00289847 7.68212 -0.129577 6.38447 0.128541C5.08683 0.386658 3.89487 1.02377 2.95932 1.95932C2.02377 2.89487 1.38666 4.08683 1.12854 5.38447C0.870423 6.68212 1.0029 8.02716 1.50921 9.24951C2.01553 10.4719 2.87294 11.5166 3.97303 12.2517C5.07312 12.9867 6.36647 13.3791 7.68954 13.3791C9.34649 13.3791 10.8696 12.7719 12.0429 11.7633L12.3208 12.0515V12.8645L17.4666 18L19 16.4666L13.8645 11.3208ZM7.68954 11.3208C5.12693 11.3208 3.05832 9.25214 3.05832 6.68954C3.05832 4.12693 5.12693 2.05832 7.68954 2.05832C10.2521 2.05832 12.3208 4.12693 12.3208 6.68954C12.3208 9.25214 10.2521 11.3208 7.68954 11.3208ZM5.11664 6.17496H10.2624V7.20412H5.11664V6.17496Z" fill="#707078"/>
</g>
</svg>
