<svg width="22" height="20" viewBox="0 0 22 20" fill="none" xmlns="http://www.w3.org/2000/svg">
<g id="Frame" clip-path="url(#clip0_325_5053)">
<path id="Vector" fill-rule="evenodd" clip-rule="evenodd" d="M21.154 20C21.7143 20 21.999 19.7446 21.999 19.2832C21.999 18.8217 21.7143 18.5864 21.154 18.5864H19.2972V1.42362H21.154C21.7143 1.42362 21.999 1.16825 21.999 0.706781C21.999 0.245312 21.7153 0 21.154 0H15.7926C15.2323 0 14.9376 0.245312 14.9376 0.706781C14.9376 1.16825 15.2323 1.42362 15.7926 1.42362H17.6787V18.5854H15.7926C15.2323 18.5854 14.9376 18.8207 14.9376 19.2822C14.9376 19.7436 15.2323 19.999 15.7926 19.999H21.1661L21.154 20ZM13.0948 16.4882C12.8574 16.6933 12.5848 16.7959 12.277 16.7959C12.0718 16.7959 11.8797 16.7416 11.6996 16.632C11.5087 16.5107 11.3609 16.3323 11.2771 16.1223L10.1224 13.5455H3.34964L2.19286 16.1243C2.09026 16.3555 1.94943 16.5264 1.77038 16.634C1.59074 16.7432 1.38412 16.7999 1.17388 16.7979C0.876218 16.7966 0.589151 16.6873 0.366147 16.4902C0.122049 16.2912 0 16.0442 0 15.7493C0.001646 15.5763 0.0411279 15.4057 0.115678 15.2496L5.42682 3.84457C5.5425 3.5882 5.72859 3.39215 5.95592 3.25843C6.18698 3.12493 6.44951 3.05552 6.71638 3.05736C6.98596 3.05736 7.23945 3.12472 7.47684 3.25843C7.71423 3.39215 7.8792 3.5882 8.00594 3.84457L13.3372 15.2496C13.4147 15.4165 13.4529 15.5834 13.4529 15.7493C13.4538 15.893 13.4223 16.0351 13.3606 16.165C13.299 16.2948 13.2088 16.4091 13.0968 16.4993L13.0948 16.4882ZM4.1946 11.6322H9.27438L6.73549 5.93174L4.1946 11.6322Z" fill="#707078"/>
</g>
<defs>
<clipPath id="clip0_325_5053">
<rect width="22" height="20" fill="white"/>
</clipPath>
</defs>
</svg>
