<svg width="20" height="20" viewBox="0 0 20 20" fill="none" xmlns="http://www.w3.org/2000/svg">
<g id="IMAGE">
<path id="Vector" d="M17.6903 15.3238C17.4021 15.9896 17.0609 16.6026 16.6656 17.1661C16.1268 17.9344 15.6856 18.4661 15.3456 18.7614C14.8185 19.2461 14.2538 19.4944 13.6491 19.5085C13.215 19.5085 12.6915 19.3849 12.0821 19.1344C11.4707 18.8849 10.9088 18.7614 10.395 18.7614C9.85619 18.7614 9.2783 18.8849 8.66019 19.1344C8.04113 19.3849 7.54242 19.5155 7.16113 19.5285C6.58124 19.5532 6.00324 19.2979 5.4263 18.7614C5.05807 18.4402 4.59748 17.8896 4.04571 17.1096C3.45371 16.2767 2.96701 15.3108 2.58572 14.2096C2.17736 13.0202 1.97266 11.8685 1.97266 10.7534C1.97266 9.47612 2.24866 8.37447 2.80148 7.45129C3.23595 6.70976 3.81395 6.12482 4.53736 5.69541C5.26077 5.266 6.04242 5.04717 6.88419 5.03317C7.34477 5.03317 7.94877 5.17564 8.69936 5.45564C9.44783 5.73659 9.92842 5.87906 10.1391 5.87906C10.2967 5.87906 10.8305 5.71247 11.7356 5.38035C12.5915 5.07235 13.3138 4.94482 13.9056 4.99506C15.5091 5.12447 16.7138 5.75659 17.515 6.89541C16.0809 7.76435 15.3715 8.98141 15.3856 10.5427C15.3985 11.7588 15.8397 12.7708 16.7068 13.5744C17.0997 13.9473 17.5385 14.2355 18.0268 14.4402C17.9209 14.7473 17.8091 15.0414 17.6903 15.3238ZM14.0127 0.851997C14.0127 1.80517 13.6644 2.69517 12.9703 3.51894C12.1327 4.49823 11.1195 5.06412 10.0208 4.97482C10.0061 4.85499 9.99867 4.73437 9.99866 4.61364C9.99866 3.69859 10.397 2.71929 11.1044 1.91859C11.4576 1.51317 11.9068 1.17611 12.4515 0.907174C12.995 0.642233 13.5091 0.495762 13.9927 0.470703C14.0068 0.598115 14.0127 0.725644 14.0127 0.851997Z" fill="black"/>
</g>
</svg>
