<svg width="48" height="48" viewBox="0 0 48 48" fill="none" xmlns="http://www.w3.org/2000/svg">
<g id="Group 22">
<g id="Rectangle" filter="url(#filter0_d_263_4902)">
<rect x="6" y="3" width="36" height="36" rx="6" fill="#20808D"/>
</g>
<path id="Vector" d="M23 13.6875C22.725 13.6875 22.5 13.9406 22.5 14.25V27.75C22.5 28.0594 22.725 28.3125 23 28.3125H31C31.275 28.3125 31.5 28.0594 31.5 27.75V14.25C31.5 13.9406 31.275 13.6875 31 13.6875H23ZM21 14.25C21 13.009 21.8969 12 23 12H31C32.1031 12 33 13.009 33 14.25V27.75C33 28.991 32.1031 30 31 30H23C21.8969 30 21 28.991 21 27.75V14.25ZM18 14.5312C18 14.0637 18.3344 13.6875 18.75 13.6875C19.1656 13.6875 19.5 14.0637 19.5 14.5312V27.4688C19.5 27.9363 19.1656 28.3125 18.75 28.3125C18.3344 28.3125 18 27.9363 18 27.4688V14.5312ZM15 16.2188C15 15.7512 15.3344 15.375 15.75 15.375C16.1656 15.375 16.5 15.7512 16.5 16.2188V25.7812C16.5 26.2488 16.1656 26.625 15.75 26.625C15.3344 26.625 15 26.2488 15 25.7812V16.2188Z" fill="white"/>
</g>
<defs>
<filter id="filter0_d_263_4902" x="0" y="0" width="48" height="48" filterUnits="userSpaceOnUse" color-interpolation-filters="sRGB">
<feFlood flood-opacity="0" result="BackgroundImageFix"/>
<feColorMatrix in="SourceAlpha" type="matrix" values="0 0 0 0 0 0 0 0 0 0 0 0 0 0 0 0 0 0 127 0" result="hardAlpha"/>
<feOffset dy="3"/>
<feGaussianBlur stdDeviation="3"/>
<feColorMatrix type="matrix" values="0 0 0 0 0 0 0 0 0 0 0 0 0 0 0 0 0 0 0.14 0"/>
<feBlend mode="normal" in2="BackgroundImageFix" result="effect1_dropShadow_263_4902"/>
<feBlend mode="normal" in="SourceGraphic" in2="effect1_dropShadow_263_4902" result="shape"/>
</filter>
</defs>
</svg>
