<svg width="14" height="14" viewBox="0 0 14 14" fill="none" xmlns="http://www.w3.org/2000/svg">
<g id="Frame">
<path id="Vector" d="M4.1999 7.0001C4.1999 7.3714 4.0524 7.7275 3.78985 7.99005C3.5273 8.2526 3.17121 8.4001 2.7999 8.4001C2.4286 8.4001 2.0725 8.2526 1.80995 7.99005C1.5474 7.7275 1.3999 7.3714 1.3999 7.0001C1.3999 6.62879 1.5474 6.2727 1.80995 6.01015C2.0725 5.7476 2.4286 5.6001 2.7999 5.6001C3.17121 5.6001 3.5273 5.7476 3.78985 6.01015C4.0524 6.2727 4.1999 6.62879 4.1999 7.0001ZM8.3999 7.0001C8.3999 7.3714 8.2524 7.7275 7.98985 7.99005C7.7273 8.2526 7.37121 8.4001 6.9999 8.4001C6.6286 8.4001 6.2725 8.2526 6.00995 7.99005C5.7474 7.7275 5.5999 7.3714 5.5999 7.0001C5.5999 6.62879 5.7474 6.2727 6.00995 6.01015C6.2725 5.7476 6.6286 5.6001 6.9999 5.6001C7.37121 5.6001 7.7273 5.7476 7.98985 6.01015C8.2524 6.2727 8.3999 6.62879 8.3999 7.0001ZM11.1999 8.4001C11.5712 8.4001 11.9273 8.2526 12.1899 7.99005C12.4524 7.7275 12.5999 7.3714 12.5999 7.0001C12.5999 6.62879 12.4524 6.2727 12.1899 6.01015C11.9273 5.7476 11.5712 5.6001 11.1999 5.6001C10.8286 5.6001 10.4725 5.7476 10.21 6.01015C9.9474 6.2727 9.7999 6.62879 9.7999 7.0001C9.7999 7.3714 9.9474 7.7275 10.21 7.99005C10.4725 8.2526 10.8286 8.4001 11.1999 8.4001Z" fill="#303030"/>
</g>
</svg>
