<svg width="24" height="24" viewBox="0 0 24 24" fill="none" xmlns="http://www.w3.org/2000/svg">
<g id="Frame" clip-path="url(#clip0_325_5026)">
<g id="Group">
<g id="Group_2">
<g id="Group_3">
<path id="Vector" d="M20.3077 24C22.3469 24 24 22.3469 24 20.3077V3.69231C24 1.6531 22.3469 0 20.3077 0H3.69231C1.6531 0 0 1.6531 0 3.69231V20.3077C0 22.3469 1.6531 24 3.69231 24H20.3077Z" fill="#707078"/>
<path id="Vector_2" d="M20.1931 23H3.8069C2.31205 23 1.09014 21.8315 1.00476 20.358L1 20.1931V3.8069C1 2.31205 2.16853 1.09014 3.64197 1.00476L3.8069 1H20.1931C21.6879 1 22.9099 2.16853 22.9952 3.64197L23 3.8069V20.1931C23 21.6879 21.8315 22.9099 20.358 22.9952L20.1931 23Z" fill="white"/>
<path id="Vector_3" d="M14.7623 10.1279C15.041 9.8367 15.5029 9.8265 15.7942 10.1051C16.0854 10.3838 16.0956 10.8458 15.817 11.137L12.3163 14.7957C12.029 15.0961 11.5491 15.0961 11.2617 14.7957L7.76108 11.137C7.48244 10.8458 7.49264 10.3838 7.78387 10.1051C8.0751 9.8265 8.53708 9.8367 8.81572 10.1279L11.789 13.2355L14.7623 10.1279Z" fill="#707078"/>
</g>
</g>
</g>
</g>
<defs>
<clipPath id="clip0_325_5026">
<rect width="24" height="24" fill="white"/>
</clipPath>
</defs>
</svg>
