<svg width="26" height="26" viewBox="0 0 26 26" fill="none" xmlns="http://www.w3.org/2000/svg">
<g id="Frame" clip-path="url(#clip0_241_935)">
<g id="Group 53">
<g id="Group">
<path id="Vector" d="M12.3397 16.0581H10.4492M12.3397 9.76416H10.4492" stroke="#F4EEFF" stroke-width="1.46208" stroke-linecap="round" stroke-linejoin="round"/>
<path id="Vector_2" d="M11.3682 10.2017L11.3698 15.7441" stroke="#F4EEFF" stroke-width="1.46208" stroke-linecap="round" stroke-linejoin="round"/>
</g>
<path id="Vector_3" fill-rule="evenodd" clip-rule="evenodd" d="M4.11821 0H21.5815C23.0136 0 23.533 0.14906 24.0565 0.42919C24.58 0.70932 24.9909 1.12001 25.2708 1.64351C25.5507 2.16702 25.7 2.68642 25.7 4.11842V21.5816C25.7 23.0136 25.5509 23.533 25.2708 24.0565C24.9907 24.58 24.58 24.9909 24.0565 25.2708C23.533 25.5507 23.0136 25.7 21.5815 25.7H4.11821C2.68619 25.7 2.16679 25.5509 1.64327 25.2708C1.11976 24.9907 0.709327 24.58 0.429194 24.0565C0.149061 23.533 0 23.0138 0 21.5818V4.11868C0 2.68668 0.149061 2.16728 0.429194 1.64377C0.709327 1.12026 1.12002 0.70932 1.64353 0.42919C2.16705 0.14906 2.68619 0 4.11821 0Z" fill="#800020"/>
<path id="Vector_4" fill-rule="evenodd" clip-rule="evenodd" d="M14.9013 10.2713L16.2924 11.4016C16.3092 11.4154 16.3222 11.4332 16.3304 11.4533C16.3386 11.4734 16.3416 11.4952 16.3393 11.5168C16.3369 11.5384 16.3293 11.559 16.317 11.5769C16.3047 11.5948 16.2881 11.6093 16.2688 11.6192L14.6666 12.4267C14.6351 12.442 14.6015 12.4528 14.5669 12.4586L14.532 12.4627C14.4367 12.4714 14.3417 12.4429 14.267 12.3831C14.1624 12.2993 14.1159 12.1667 14.1436 12.0397L14.1531 12.0053L14.6949 10.3348C14.7015 10.3147 14.7129 10.2965 14.7281 10.2818C14.7433 10.2671 14.7618 10.2562 14.7821 10.2502C14.8024 10.2442 14.8238 10.2432 14.8446 10.2473C14.8653 10.2513 14.8848 10.2604 14.9013 10.2736V10.2713ZM18.8977 4.99687C19.0798 4.79325 19.3305 4.66374 19.602 4.63303C19.8735 4.60232 20.1467 4.67255 20.3698 4.83034L20.4165 4.86529L20.689 5.09145C20.7974 5.18105 20.887 5.29126 20.9525 5.41571C21.0181 5.54015 21.0583 5.67635 21.0709 5.81644C21.0939 6.0782 21.0188 6.33918 20.8601 6.54864L20.8221 6.59593L16.9928 11.1104C16.9002 11.2196 16.737 11.2337 16.627 11.1425L15.1069 9.88321C14.9959 9.79121 14.9784 9.62673 15.0727 9.5157L18.8977 4.99687Z" fill="white"/>
<path id="Vector_5" d="M6.16834 5.90725C6.03393 5.90725 5.92316 6.00902 5.90877 6.13984L5.90723 6.16811V19.5321C5.90723 19.6665 6.009 19.7773 6.13981 19.7917L6.16808 19.7932H19.5322C19.6666 19.7932 19.7774 19.6914 19.7918 19.5606L19.7933 19.5324V10.8717C19.7933 10.7278 19.6764 10.6109 19.5325 10.6109C19.3981 10.6109 19.2873 10.7126 19.2729 10.8435L19.2714 10.8717V19.271H6.42894V6.42871H15.3469C15.4813 6.42871 15.5921 6.32693 15.6065 6.19612L15.608 6.16785C15.608 6.03344 15.5063 5.92267 15.3755 5.90828L15.3472 5.90674H6.16834V5.90725Z" fill="white"/>
<g id="Group_2">
<path id="Vector_6" d="M7.71001 6.16798C7.71001 5.31635 7.01962 4.62598 6.16799 4.62598C5.31636 4.62598 4.62598 5.31635 4.62598 6.16798C4.62598 7.0196 5.31636 7.70998 6.16799 7.70998C7.01962 7.70998 7.71001 7.0196 7.71001 6.16798Z" fill="#F4EEFF"/>
<path id="Vector_7" d="M7.71001 19.5322C7.71001 18.6806 7.01962 17.9902 6.16799 17.9902C5.31636 17.9902 4.62598 18.6806 4.62598 19.5322C4.62598 20.3839 5.31636 21.0742 6.16799 21.0742C7.01962 21.0742 7.71001 20.3839 7.71001 19.5322Z" fill="#F4EEFF"/>
<path id="Vector_8" d="M21.0743 19.5322C21.0743 18.6806 20.3839 17.9902 19.5322 17.9902C18.6806 17.9902 17.9902 18.6806 17.9902 19.5322C17.9902 20.3839 18.6806 21.0742 19.5322 21.0742C20.3839 21.0742 21.0743 20.3839 21.0743 19.5322Z" fill="#F4EEFF"/>
</g>
</g>
</g>
<defs>
<clipPath id="clip0_241_935">
<rect width="26" height="26" fill="white"/>
</clipPath>
</defs>
</svg>
