<svg width="18" height="16" viewBox="0 0 18 16" fill="none" xmlns="http://www.w3.org/2000/svg">
<g id="Group">
<path id="Vector" d="M6.75 5.143C6.75 5.59765 6.57221 6.03369 6.25574 6.35518C5.93928 6.67667 5.51005 6.85728 5.0625 6.85728C4.61495 6.85728 4.18572 6.67667 3.86926 6.35518C3.55279 6.03369 3.375 5.59765 3.375 5.143C3.375 4.68834 3.55279 4.2523 3.86926 3.93081C4.18572 3.60932 4.61495 3.42871 5.0625 3.42871C5.51005 3.42871 5.93928 3.60932 6.25574 3.93081C6.57221 4.2523 6.75 4.68834 6.75 5.143Z" fill="#707078"/>
<path id="Vector_2" d="M2.25 0C1.65326 0 1.08097 0.240816 0.65901 0.66947C0.237053 1.09812 0 1.67951 0 2.28571V13.7143C0 14.3205 0.237053 14.9019 0.65901 15.3305C1.08097 15.7592 1.65326 16 2.25 16H15.75C16.3467 16 16.919 15.7592 17.341 15.3305C17.7629 14.9019 18 14.3205 18 13.7143V2.28571C18 1.67951 17.7629 1.09812 17.341 0.66947C16.919 0.240816 16.3467 0 15.75 0H2.25ZM15.75 1.14286C16.0484 1.14286 16.3345 1.26327 16.5455 1.47759C16.7565 1.69192 16.875 1.98261 16.875 2.28571V9.71429L12.6259 7.48914C12.5204 7.43546 12.4009 7.41683 12.2844 7.43591C12.1679 7.45498 12.0603 7.51079 11.9767 7.59543L7.803 11.8354L4.8105 9.81029C4.70246 9.73721 4.57286 9.70434 4.44368 9.71726C4.3145 9.73017 4.1937 9.78807 4.10175 9.88114L1.125 12.5714V2.28571C1.125 1.98261 1.24353 1.69192 1.4545 1.47759C1.66548 1.26327 1.95163 1.14286 2.25 1.14286H15.75Z" fill="#707078"/>
</g>
</svg>
