<svg width="12" height="12" viewBox="0 0 12 12" fill="none" xmlns="http://www.w3.org/2000/svg">
<g id="Frame" clip-path="url(#clip0_347_6289)">
<path id="Vector" d="M5.43516 1.04063C5.05547 0.396094 4.36172 0 3.61406 0H3.5625C2.42344 0 1.5 0.923438 1.5 2.0625C1.5 2.4 1.58203 2.71875 1.725 3H1.125C0.503906 3 0 3.50391 0 4.125V5.625C0 6.11484 0.314062 6.53203 0.75 6.68672V6.75V10.5C0.75 11.3273 1.42266 12 2.25 12H9.75C10.5773 12 11.25 11.3273 11.25 10.5V6.75V6.68672C11.6859 6.53203 12 6.11484 12 5.625V4.125C12 3.50391 11.4961 3 10.875 3H10.275C10.418 2.71875 10.5 2.4 10.5 2.0625C10.5 0.923438 9.57656 0 8.4375 0H8.38594C7.63828 0 6.94453 0.396094 6.56484 1.04063L6 2.00391L5.43516 1.04297V1.04063ZM10.875 4.125V5.625H10.125H6.75V4.125H8.4375H10.875ZM5.25 4.125V5.625H1.875H1.125V4.125H3.5625H5.25ZM5.25 6.75V10.875H2.25C2.04375 10.875 1.875 10.7063 1.875 10.5V6.75H5.25ZM6.75 10.875V6.75H10.125V10.5C10.125 10.7063 9.95625 10.875 9.75 10.875H6.75ZM8.4375 3H6.75H6.71953L7.53516 1.6125C7.71328 1.31016 8.03672 1.125 8.38594 1.125H8.4375C8.95547 1.125 9.375 1.54453 9.375 2.0625C9.375 2.58047 8.95547 3 8.4375 3ZM5.25 3H3.5625C3.04453 3 2.625 2.58047 2.625 2.0625C2.625 1.54453 3.04453 1.125 3.5625 1.125H3.61406C3.96328 1.125 4.28906 1.31016 4.46484 1.6125L5.28047 3H5.25Z" fill="black"/>
</g>
<defs>
<clipPath id="clip0_347_6289">
<rect width="12" height="12" fill="white"/>
</clipPath>
</defs>
</svg>
