<svg width="16" height="16" viewBox="0 0 16 16" fill="none" xmlns="http://www.w3.org/2000/svg">
<g id="Frame">
<path id="Vector" d="M4.66659 7.3335L7.33325 1.3335C7.86369 1.3335 8.37239 1.54421 8.74747 1.91928C9.12254 2.29436 9.33325 2.80306 9.33325 3.3335V6.00016H13.1066C13.2999 5.99797 13.4913 6.03783 13.6676 6.11697C13.844 6.19612 14.001 6.31265 14.1278 6.45851C14.2547 6.60436 14.3483 6.77604 14.4021 6.96166C14.456 7.14728 14.4689 7.3424 14.4399 7.5335L13.5199 13.5335C13.4717 13.8514 13.3102 14.1412 13.0652 14.3495C12.8202 14.5578 12.5081 14.6705 12.1866 14.6668H4.66659M4.66659 7.3335V14.6668M4.66659 7.3335H2.66659C2.31296 7.3335 1.97382 7.47397 1.72378 7.72402C1.47373 7.97407 1.33325 8.31321 1.33325 8.66683V13.3335C1.33325 13.6871 1.47373 14.0263 1.72378 14.2763C1.97382 14.5264 2.31296 14.6668 2.66659 14.6668H4.66659" stroke="#303030" stroke-linecap="round" stroke-linejoin="round"/>
</g>
</svg>
