<svg width="26" height="26" viewBox="0 0 26 26" fill="none" xmlns="http://www.w3.org/2000/svg">
<g id="Frame" clip-path="url(#clip0_334_5542)">
<g id="Group 58">
<path id="Vector" d="M16.2035 14.3921H23.8879C24.518 14.3921 24.7462 14.4576 24.9768 14.581C25.2073 14.7043 25.388 14.885 25.5113 15.1155C25.6347 15.3461 25.6997 15.5743 25.6997 16.2039V23.8882C25.6997 24.5184 25.6342 24.7466 25.5108 24.9771C25.3875 25.2077 25.2068 25.3883 24.9763 25.5117C24.7457 25.6351 24.5175 25.7001 23.8879 25.7001H16.2035C15.5733 25.7001 15.3451 25.6345 15.1146 25.5112C14.884 25.3878 14.7033 25.2072 14.58 24.9766C14.4566 24.7461 14.3916 24.5179 14.3916 23.8882V16.2039C14.3916 15.5738 14.4571 15.3456 14.5805 15.115C14.7039 14.8845 14.8845 14.7038 15.1151 14.5805C15.3456 14.4571 15.5738 14.3921 16.2035 14.3921Z" fill="#F5C5B3"/>
<path id="Vector_2" d="M1.81187 0H9.49626C10.1264 0 10.3546 0.065535 10.5852 0.188895C10.8157 0.312255 10.9964 0.492926 11.1197 0.723455C11.2431 0.953984 11.3081 1.1822 11.3081 1.81185V23.8881C11.3081 24.5183 11.2426 24.7465 11.1192 24.977C10.9959 25.2076 10.8152 25.3882 10.5847 25.5116C10.3541 25.635 10.1259 25.7 9.49626 25.7H1.81187C1.1817 25.7 0.953481 25.6345 0.722949 25.5111C0.492417 25.3877 0.311744 25.2071 0.188383 24.9765C0.0650217 24.746 0 24.5178 0 23.8881V1.81185C0 1.1822 0.0655357 0.9509 0.188897 0.723198C0.312258 0.495496 0.492931 0.311998 0.723463 0.188638C0.953995 0.065278 1.18221 0 1.81187 0Z" fill="#FB8824"/>
<path id="Vector_3" d="M16.2035 0H23.8879C24.518 0 24.7462 0.065535 24.9768 0.188895C25.2073 0.312255 25.388 0.492926 25.5113 0.723455C25.6347 0.953984 25.6997 1.1822 25.6997 1.81185V9.49615C25.6997 10.1263 25.6342 10.3545 25.5108 10.5851C25.3875 10.8156 25.2068 10.9963 24.9763 11.1196C24.7457 11.243 24.5175 11.308 23.8879 11.308H16.2035C15.5733 11.308 15.3451 11.2425 15.1146 11.1191C14.884 10.9957 14.7033 10.8151 14.58 10.5845C14.4566 10.354 14.3916 10.1258 14.3916 9.49615V1.81185C14.3916 1.18169 14.4571 0.95347 14.5805 0.722941C14.7039 0.492412 14.8845 0.311741 15.1151 0.188381C15.3456 0.065021 15.5738 0 16.2035 0Z" fill="#F5C5B3"/>
<path id="Vector_4" d="M18.092 7.13L19.4354 3.65125C19.524 3.42175 19.6888 3.34131 19.9422 3.34131H20.1889C20.4233 3.34131 20.6325 3.39708 20.7466 3.71344L22.0008 7.13026C22.0388 7.22946 22.102 7.40936 22.102 7.5209C22.102 7.7689 21.8802 7.96731 21.6142 7.96731C21.386 7.96731 21.221 7.88661 21.1455 7.6882L20.8795 6.94419H19.2069L18.9345 7.6882C18.8651 7.88661 18.7191 7.96731 18.4719 7.96731C18.1892 7.96731 17.9902 7.79357 17.9902 7.5209C17.9902 7.40936 18.0537 7.22946 18.0915 7.13026L18.092 7.13ZM20.6518 6.23693L20.0624 4.44487H20.0496L19.4328 6.23693H20.6492H20.6518ZM18.2478 21.5194V18.3157C18.2478 17.8726 18.4749 17.733 18.8216 17.733H20.1246C20.8443 17.733 21.6965 17.897 21.6965 18.8618C21.6995 19.0537 21.6431 19.2418 21.535 19.4004C21.427 19.559 21.2725 19.6803 21.0928 19.7477V19.7597C21.5469 19.8811 21.8458 20.2087 21.8458 20.8096C21.8458 21.7258 21.1108 22.1023 20.2619 22.1023H18.8214C18.4749 22.102 18.2478 21.9625 18.2478 21.5194ZM19.228 20.1573V21.3344H20.0504C20.4328 21.3344 20.8633 21.2555 20.8633 20.7518C20.8633 20.2239 20.4091 20.1571 19.9309 20.1571H19.2256L19.228 20.1573ZM19.228 18.4611V19.5292H20.0349C20.4976 19.5292 20.716 19.3411 20.716 18.9952C20.716 18.5763 20.3691 18.4611 20.0049 18.4611H19.228Z" fill="#B63C23"/>
<g id="Group">
<path id="Vector_5" d="M5.65477 14.1616C6.38476 14.1616 6.97654 13.5652 6.97654 12.8294C6.97654 12.0936 6.38476 11.4971 5.65477 11.4971C4.92478 11.4971 4.33301 12.0936 4.33301 12.8294C4.33301 13.5652 4.92478 14.1616 5.65477 14.1616Z" fill="white"/>
</g>
</g>
</g>
<defs>
<clipPath id="clip0_334_5542">
<rect width="26" height="26" fill="white"/>
</clipPath>
</defs>
</svg>
