<svg width="35" height="36" viewBox="0 0 35 36" fill="none" xmlns="http://www.w3.org/2000/svg">
<g id="Frame" clip-path="url(#clip0_315_3719)">
<g id="Group">
<g id="Group_2">
<g id="Group_3">
<path id="Rectangle-17" d="M27.5538 1.5V7.5H33.5113V1.5H27.5538ZM26.8091 0H34.2559C34.6672 0 35.0006 0.335786 35.0006 0.75V8.25C35.0006 8.66421 34.6672 9 34.2559 9H26.8091C26.3979 9 26.0645 8.66421 26.0645 8.25V0.75C26.0645 0.335786 26.3979 0 26.8091 0Z" fill="#303030"/>
<path id="Rectangle-17-Copy" d="M27.5538 15V21H33.5113V15H27.5538ZM26.8091 13.5H34.2559C34.6672 13.5 35.0006 13.8358 35.0006 14.25V21.75C35.0006 22.1642 34.6672 22.5 34.2559 22.5H26.8091C26.3979 22.5 26.0645 22.1642 26.0645 21.75V14.25C26.0645 13.8358 26.3979 13.5 26.8091 13.5Z" fill="#303030"/>
<path id="Rectangle-17-Copy-2" d="M27.5538 28.5V34.5H33.5113V28.5H27.5538ZM26.8091 27H34.2559C34.6672 27 35.0006 27.3358 35.0006 27.75V35.25C35.0006 35.6642 34.6672 36 34.2559 36H26.8091C26.3979 36 26.0645 35.6642 26.0645 35.25V27.75C26.0645 27.3358 26.3979 27 26.8091 27Z" fill="#303030"/>
<path id="Combined-Shape" d="M19.3624 31.5H23.0858C23.4971 31.5 23.8305 31.8358 23.8305 32.25C23.8305 32.6642 23.4971 33 23.0858 33H17.873V3H23.0858C23.4971 3 23.8305 3.33579 23.8305 3.75C23.8305 4.16421 23.4971 4.5 23.0858 4.5H19.3624V17.25H23.0858C23.4971 17.25 23.8305 17.5858 23.8305 18C23.8305 18.4142 23.4971 18.75 23.0858 18.75H19.3624V31.5Z" fill="#303030"/>
<path id="Rectangle-8-Copy" d="M8.68495 9.3H1.78723V22.95H11.2523V11.8472L8.68495 9.3ZM8.68495 7.5C9.15432 7.5 9.60485 7.68596 9.93922 8.01772L13.0395 11.0938V22.95C13.0395 23.9441 12.2393 24.75 11.2523 24.75H1.78723C0.800172 24.75 0 23.9441 0 22.95L0 9.3C0 8.30589 0.800172 7.5 1.78723 7.5H8.68495ZM12.055 11.6042C12.3218 11.6042 12.538 11.8187 12.538 12.0833C12.538 12.348 12.3218 12.5625 12.055 12.5625H8.67443C8.40771 12.5625 8.19149 12.348 8.19149 12.0833V8.72917C8.19149 8.46453 8.40771 8.25 8.67443 8.25C8.94116 8.25 9.15738 8.46453 9.15738 8.72917L12.055 11.6042Z" fill="#303030"/>
</g>
</g>
</g>
</g>
<defs>
<clipPath id="clip0_315_3719">
<rect width="35" height="36" fill="white"/>
</clipPath>
</defs>
</svg>
