<svg width="26" height="26" viewBox="0 0 26 26" fill="none" xmlns="http://www.w3.org/2000/svg">
<g id="Frame" clip-path="url(#clip0_334_5524)">
<g id="Group 56">
<path id="Vector" d="M4.11821 0H21.5815C23.0136 0 23.533 0.14906 24.0565 0.42919C24.58 0.70932 24.9909 1.12001 25.2708 1.64351C25.5507 2.16702 25.7 2.68642 25.7 4.11842V21.5816C25.7 23.0136 25.5509 23.533 25.2708 24.0565C24.9907 24.58 24.58 24.9909 24.0565 25.2708C23.533 25.5507 23.0136 25.7 21.5815 25.7H4.11821C2.68619 25.7 2.16679 25.5509 1.64327 25.2708C1.11976 24.9907 0.709327 24.58 0.429194 24.0565C0.149061 23.533 0 23.0138 0 21.5818V4.11868C0 2.68668 0.149061 2.16728 0.429194 1.64377C0.709327 1.12026 1.12002 0.70932 1.64353 0.42919C2.16705 0.14906 2.68619 0 4.11821 0Z" fill="#0404AC"/>
<g id="Group">
<path id="Vector_2" d="M12.7178 5.58078C12.7999 5.54426 12.8888 5.52539 12.9787 5.52539C13.0686 5.52539 13.1576 5.54426 13.2397 5.58078L18.7653 8.03668C18.8789 8.08715 18.9754 8.16949 19.0432 8.27373C19.1109 8.37796 19.1469 8.49961 19.1469 8.62392V12.3078C19.1469 16.0201 16.5769 19.4575 13.1313 20.2992C13.0311 20.3236 12.9266 20.3236 12.8265 20.2992C9.38057 19.457 6.81055 16.0199 6.81055 12.3078V8.62392C6.81053 8.49961 6.84658 8.37796 6.91432 8.27373C6.98206 8.16949 7.07859 8.08715 7.1922 8.03668L12.7178 5.58078ZM8.09556 9.04129V12.3078C8.09556 15.384 10.194 18.2486 12.9786 19.0113C15.7632 18.2486 17.8617 15.3843 17.8617 12.3078V9.04129L12.9786 6.87118L8.09556 9.04129Z" fill="white"/>
<path id="Vector_3" d="M13.8496 15.0328H11.8674L12.1701 12.5759C11.8781 12.3708 11.6885 12.0393 11.6885 11.6646C11.6885 11.0421 12.2122 10.5374 12.8586 10.5374C13.505 10.5374 14.0287 11.0421 14.0287 11.6646C14.0287 12.039 13.8391 12.3708 13.5471 12.5759L13.8496 15.0328Z" fill="white"/>
</g>
</g>
</g>
<defs>
<clipPath id="clip0_334_5524">
<rect width="26" height="26" fill="white"/>
</clipPath>
</defs>
</svg>
