<svg width="26" height="26" viewBox="0 0 26 26" fill="none" xmlns="http://www.w3.org/2000/svg">
<g id="Frame" clip-path="url(#clip0_334_5551)">
<g id="Group 59">
<path id="Vector" fill-rule="evenodd" clip-rule="evenodd" d="M9.08548 17.6528H13.9941C15.2668 17.6528 15.7288 17.5202 16.194 17.2714C16.6536 17.0277 17.0292 16.6512 17.2719 16.191C17.5263 15.7273 17.6537 15.2658 17.6537 13.9926V9.08545H23.0373C23.9625 9.08545 24.2981 9.18157 24.6379 9.36301C24.9751 9.54548 25.2418 9.81019 25.4228 10.1479C25.6037 10.4856 25.7003 10.8212 25.7003 11.748V23.0374C25.7003 23.9626 25.6042 24.2983 25.4228 24.638C25.2429 24.9752 24.9756 25.242 24.6384 25.4229C24.3012 25.6038 23.9625 25.7 23.0373 25.7H11.7474C10.8223 25.7 10.4866 25.6038 10.1474 25.4224C9.80815 25.241 9.54499 24.9752 9.36252 24.638C9.18005 24.3009 9.08496 23.9637 9.08496 23.038L9.08548 17.6528Z" fill="#FB8824"/>
<path id="Vector_2" d="M22.5851 19.0883C22.5851 18.8431 22.3831 18.6442 22.1328 18.6442C21.8824 18.6442 21.6784 18.8431 21.6784 19.0883V21.0636L19.0334 18.4699C18.8555 18.2952 18.5708 18.2952 18.3909 18.4699C18.3071 18.5522 18.2588 18.6653 18.2588 18.7835C18.2589 18.8422 18.2706 18.9003 18.2934 18.9544C18.3162 19.0085 18.3495 19.0575 18.3914 19.0986L21.0359 21.6943H19.0241C18.7723 21.6943 18.5708 21.8932 18.5708 22.1399C18.5708 22.3866 18.7728 22.5855 19.0241 22.5855H22.1343C22.1924 22.5845 22.251 22.5742 22.3065 22.5496C22.417 22.5059 22.5054 22.4195 22.5517 22.3111C22.5757 22.2575 22.5871 22.1991 22.5851 22.1404L22.5876 19.0903L22.5851 19.0883Z" fill="white"/>
<g id="Group">
<path id="Vector_3" fill-rule="evenodd" clip-rule="evenodd" d="M13.9524 16.6145H2.66249C1.7373 16.6145 1.40166 16.5184 1.06242 16.3354C0.723189 16.1524 0.457454 15.8898 0.277557 15.5505C0.0976588 15.2113 0 14.8803 0 13.9525V2.66252C0 1.73732 0.0966308 1.40168 0.277557 1.06244C0.454839 0.72828 0.72799 0.454768 1.06191 0.277046C1.40166 0.0966319 1.7373 0 2.66249 0H13.9524C14.8775 0 15.2132 0.0966319 15.5524 0.27756C15.8917 0.458487 16.1548 0.724739 16.3373 1.06244C16.5198 1.40013 16.6148 1.73732 16.6148 2.66252V13.9525C16.6148 14.8777 16.5187 15.2134 16.3373 15.5526C16.1558 15.8918 15.8901 16.1571 15.5524 16.3375C15.2147 16.5179 14.8781 16.6145 13.9524 16.6145Z" fill="#F3D9CC"/>
<path id="Vector_4" fill-rule="evenodd" clip-rule="evenodd" d="M9.9552 8.81816C9.39701 9.27973 8.64966 9.51103 7.71419 9.51103H6.88306V12.079H5.14062V4.62598H7.87147C9.819 4.62598 10.7946 5.41754 10.7946 7.00065C10.7946 7.74749 10.5155 8.35658 9.9552 8.81816ZM7.61807 5.91097H6.9396V8.22397H7.61807C8.53555 8.22397 8.99558 7.83436 8.99558 7.05565C8.99558 6.29288 8.53812 5.91097 7.61807 5.91097Z" fill="#D04526"/>
</g>
</g>
</g>
<defs>
<clipPath id="clip0_334_5551">
<rect width="26" height="26" fill="white"/>
</clipPath>
</defs>
</svg>
