<svg width="35" height="35" viewBox="0 0 35 35" fill="none" xmlns="http://www.w3.org/2000/svg">
<g id="Frame" clip-path="url(#clip0_315_3697)">
<g id="Group">
<g id="Group_2">
<g id="Group_3">
<path id="Rectangle" d="M6.5625 33.5417H0V35.0001H6.5625V33.5417Z" fill="#303030"/>
<path id="Rectangle-Copy-5" d="M16.041 33.5417H9.47852V35.0001H16.041V33.5417Z" fill="#303030"/>
<path id="Rectangle-Copy-6" d="M25.5215 33.5417H18.959V35.0001H25.5215V33.5417Z" fill="#303030"/>
<path id="Rectangle-Copy-7" d="M35 33.5417H28.4375V35.0001H35V33.5417Z" fill="#303030"/>
<path id="Rectangle-8" d="M29.6505 10.5H22.8965V23.7708H32.1643V12.9765L29.6505 10.5ZM29.6505 8.75C30.1101 8.75 30.5512 8.9308 30.8786 9.25333L33.9143 12.2439V23.7708C33.9143 24.7373 33.1308 25.5208 32.1643 25.5208H22.8965C21.93 25.5208 21.1465 24.7373 21.1465 23.7708V10.5C21.1465 9.5335 21.93 8.75 22.8965 8.75H29.6505ZM32.9504 12.7402C33.2116 12.7402 33.4233 12.9487 33.4233 13.206C33.4233 13.4633 33.2116 13.6719 32.9504 13.6719H29.6402C29.379 13.6719 29.1673 13.4633 29.1673 13.206V9.94502C29.1673 9.68774 29.379 9.47917 29.6402 9.47917C29.9014 9.47917 30.1131 9.68774 30.1131 9.94502L32.9504 12.7402Z" fill="#303030"/>
<path id="Rectangle-8-Copy-2" d="M8.50402 10.5H1.75V23.7708H11.0179V12.9765L8.50402 10.5ZM8.50402 8.75C8.96361 8.75 9.40475 8.9308 9.73216 9.25333L12.7679 12.2439V23.7708C12.7679 24.7373 11.9844 25.5208 11.0179 25.5208H1.75C0.783502 25.5208 0 24.7373 0 23.7708L0 10.5C0 9.5335 0.783502 8.75 1.75 8.75H8.50402ZM11.8039 12.7402C12.0651 12.7402 12.2768 12.9487 12.2768 13.206C12.2768 13.4633 12.0651 13.6719 11.8039 13.6719H8.49372C8.23255 13.6719 8.02083 13.4633 8.02083 13.206V9.94502C8.02083 9.68774 8.23255 9.47917 8.49372 9.47917C8.75488 9.47917 8.9666 9.68774 8.9666 9.94502L11.8039 12.7402Z" fill="#303030"/>
<path id="Rectangle-12" d="M34.9993 31.3542H33.541V35.0001H34.9993V31.3542Z" fill="#303030"/>
<path id="Rectangle-12-Copy" d="M1.45833 31.3542H0V35.0001H1.45833V31.3542Z" fill="#303030"/>
<path id="Line" d="M15.6777 18.2292C15.0737 18.2292 14.584 17.7396 14.584 17.1355C14.584 16.5314 15.0737 16.0417 15.6777 16.0417H18.5944C19.1985 16.0417 19.6882 16.5314 19.6882 17.1355C19.6882 17.7396 19.1985 18.2292 18.5944 18.2292H15.6777Z" fill="#303030"/>
<path id="Rectangle-Copy-8" d="M0 1.45833V0H6.5625V1.45833H0Z" fill="#303030"/>
<path id="Rectangle-Copy-9" d="M9.47852 1.45833V0H16.041V1.45833H9.47852Z" fill="#303030"/>
<path id="Rectangle-Copy-10" d="M18.959 1.45833V0H25.5215V1.45833H18.959Z" fill="#303030"/>
<path id="Rectangle-Copy-11" d="M28.4375 1.45833V0H35V1.45833H28.4375Z" fill="#303030"/>
<path id="Rectangle-12-Copy-8" d="M33.541 3.64583V0H34.9993V3.64583H33.541Z" fill="#303030"/>
<path id="Rectangle-12-Copy-9" d="M0 3.64583V0H1.45833V3.64583H0Z" fill="#303030"/>
</g>
</g>
</g>
</g>
<defs>
<clipPath id="clip0_315_3697">
<rect width="35" height="35" fill="white"/>
</clipPath>
</defs>
</svg>
