<svg width="18" height="18" viewBox="0 0 18 18" fill="none" xmlns="http://www.w3.org/2000/svg">
<g id="Frame" opacity="0.3" clip-path="url(#clip0_221_6352)">
<path id="Vector" d="M0.5625 1.33188C0.562431 1.1336 0.61648 0.938683 0.719388 0.766101C0.822296 0.593519 0.970555 0.449153 1.14973 0.347055C1.32891 0.244957 1.53291 0.188606 1.74186 0.183488C1.95081 0.17837 2.15759 0.22466 2.34209 0.31785L17.9201 8.16938C18.1141 8.2672 18.2764 8.41326 18.3896 8.59189C18.5027 8.77052 18.5625 8.975 18.5625 9.18341C18.5625 9.39182 18.5027 9.5963 18.3896 9.77493C18.2764 9.95356 18.1141 10.0996 17.9201 10.1974L2.34088 18.049C2.15633 18.1419 1.94956 18.188 1.74069 18.1827C1.53181 18.1774 1.32794 18.1209 1.1489 18.0187C0.969869 17.9165 0.821769 17.7721 0.71901 17.5995C0.616251 17.4269 0.562333 17.232 0.5625 17.0338V11.8592C0.56248 11.5912 0.661216 11.3317 0.841618 11.1256C1.02202 10.9194 1.27273 10.7796 1.55035 10.7303L10.2473 9.18341L1.55035 7.63653C1.27273 7.58723 1.02202 7.4474 0.841618 7.24125C0.661216 7.03509 0.56248 6.77559 0.5625 6.50766V1.33188Z" fill="#303030"/>
</g>
<defs>
<clipPath id="clip0_221_6352">
<rect width="18" height="18" fill="white"/>
</clipPath>
</defs>
</svg>
