<svg width="24" height="24" viewBox="0 0 24 24" fill="none" xmlns="http://www.w3.org/2000/svg">
<g id="Frame" clip-path="url(#clip0_325_5060)">
<path id="Vector" fill-rule="evenodd" clip-rule="evenodd" d="M13.717 10.2861V14.5721H19.251L19.433 15.1851C19.621 15.8151 19.717 16.4751 19.717 17.1451C19.7156 18.9633 18.9926 20.7066 17.7066 21.9919C16.4207 23.2773 14.6771 23.9996 12.859 24.0001C11.0406 23.9993 9.29697 23.2767 8.0112 21.9909C6.72544 20.7051 6.00275 18.9615 6.00195 17.1431C6.00275 15.3248 6.72544 13.5811 8.0112 12.2954C9.29697 11.0096 11.0406 10.2869 12.859 10.2861H13.717ZM12.86 14.7041V11.1441C11.2687 11.1441 9.74253 11.7763 8.61731 12.9015C7.49209 14.0267 6.85995 15.5528 6.85995 17.1441C6.85995 18.7354 7.49209 20.2616 8.61731 21.3868C9.74253 22.512 11.2687 23.1441 12.86 23.1441C13.7946 23.1444 14.7164 22.9264 15.5518 22.5074C16.3873 22.0884 17.1133 21.48 17.672 20.7308C18.2307 19.9815 18.6066 19.1121 18.7698 18.1918C18.933 17.2715 18.8789 16.3258 18.612 15.4301H13.586C13.186 15.4301 12.861 15.1051 12.861 14.7051L12.86 14.7041Z" fill="#707078"/>
<path id="Vector_2" fill-rule="evenodd" clip-rule="evenodd" d="M0.119089 14.1342L8.26309 0.420213C8.33955 0.293069 8.4476 0.187867 8.57674 0.114834C8.70588 0.0418 8.85173 0.00341797 9.00009 0.00341797C9.14845 0.00341797 9.29429 0.0418 9.42343 0.114834C9.55258 0.187867 9.66063 0.293069 9.73709 0.420213L13.5941 6.91721C13.6741 7.04921 13.7141 7.20021 13.7141 7.35421V10.2842C13.7141 10.7582 13.3301 11.1412 12.8571 11.1412L12.6271 11.1452C10.2551 11.2452 8.17409 12.7132 7.29309 14.8912C7.16309 15.2152 6.84809 15.4272 6.49909 15.4272H0.857089C0.70605 15.4264 0.5579 15.3857 0.427545 15.3094C0.29719 15.2332 0.189227 15.1239 0.114519 14.9926C0.0398114 14.8613 0.00099348 14.7127 0.00197115 14.5617C0.00294881 14.4106 0.0436876 14.2625 0.120089 14.1322L0.119089 14.1342ZM12.8561 7.35421L8.99909 0.857213L0.857089 14.5702H6.49909C7.01173 13.3038 7.89084 12.2193 9.02378 11.4557C10.1567 10.6921 11.4918 10.2842 12.8581 10.2842V7.35421H12.8561Z" fill="#707078"/>
<path id="Vector_3" fill-rule="evenodd" clip-rule="evenodd" d="M23.1444 4.28613H13.7144C13.2414 4.28613 12.8574 4.67013 12.8574 5.14313V14.5731C12.8574 15.0461 13.2414 15.4301 13.7144 15.4301H23.1444C23.6174 15.4301 24.0014 15.0461 24.0014 14.5731V5.14313C24.0014 4.67013 23.6174 4.28613 23.1444 4.28613Z" fill="#707078"/>
</g>
<defs>
<clipPath id="clip0_325_5060">
<rect width="24.001" height="24" fill="white"/>
</clipPath>
</defs>
</svg>
