<svg width="26" height="26" viewBox="0 0 26 26" fill="none" xmlns="http://www.w3.org/2000/svg">
<g id="Frame 138">
<g id="Group">
<path id="Vector" fill-rule="evenodd" clip-rule="evenodd" d="M2.67153 0H14.0026C14.93 0 15.2686 0.0958644 15.6083 0.278736C15.9434 0.457051 16.2177 0.731345 16.396 1.06649C16.5773 1.40618 16.6747 1.74223 16.6747 2.67222V14.0019C16.6747 14.9293 16.5773 15.268 16.396 15.6077C16.2177 15.9428 15.9434 16.2171 15.6083 16.3954C15.2686 16.5767 14.931 16.6742 14.0026 16.6742H2.67153C1.74421 16.6742 1.40558 16.5767 1.0659 16.3954C0.730972 16.217 0.456884 15.9427 0.278719 15.6077C0.0974214 15.268 0 14.9304 0 14.0019V2.67014C0 1.74275 0.0979423 1.4041 0.278719 1.06441C0.458233 0.730468 0.731986 0.456698 1.0659 0.277173C1.40558 0.0958644 1.74317 0.00104201 2.67153 0.00104201V0Z" fill="#FB8824"/>
<path id="Vector_2" fill-rule="evenodd" clip-rule="evenodd" d="M23.0289 25.6995H11.6994C10.7721 25.6995 10.4334 25.6036 10.0938 25.4208C9.75774 25.2436 9.48319 24.9691 9.30606 24.633C9.12477 24.2933 9.02734 23.9573 9.02734 23.0273V11.6981C9.02734 10.7707 9.1232 10.4321 9.30606 10.0924C9.48319 9.75632 9.75774 9.48176 10.0938 9.30461C10.4334 9.12331 10.771 9.02588 11.6994 9.02588H23.0284C23.9583 9.02588 24.2944 9.12383 24.634 9.30461C24.9701 9.48176 25.2446 9.75632 25.4217 10.0924C25.6051 10.4321 25.7005 10.7697 25.7005 11.6981V23.0278C25.7005 23.9578 25.6046 24.2938 25.4217 24.6335C25.2446 24.9696 24.9701 25.2442 24.634 25.4213C24.2944 25.6047 23.9583 25.7 23.0284 25.7L23.0289 25.6995Z" fill="#FB8824"/>
<path id="Vector_3" d="M4.61587 8.07892C4.86802 8.07892 5.07172 7.87729 5.07172 7.63086V5.65105L8.8201 9.35121C8.90585 9.43552 9.02129 9.48278 9.14154 9.48278C9.26179 9.48278 9.37723 9.43552 9.46298 9.35121C9.50512 9.30997 9.53859 9.26073 9.56145 9.20638C9.58431 9.15203 9.59608 9.09366 9.59608 9.0347C9.59608 8.97573 9.58431 8.91737 9.56145 8.86302C9.53859 8.80867 9.50512 8.75943 9.46298 8.71819L5.71408 5.02064H7.73284C7.98499 5.02064 8.18868 4.81901 8.18868 4.57257C8.18868 4.32614 7.9803 4.12451 7.73284 4.12451H4.61587C4.55654 4.12467 4.4978 4.13635 4.44291 4.1589C4.36038 4.1921 4.2896 4.24913 4.23959 4.32271C4.18958 4.39629 4.16261 4.48309 4.16211 4.57205V7.63294C4.16211 7.87937 4.3705 8.081 4.61535 8.081L4.61587 8.07892ZM21.1791 17.5612C20.9269 17.5612 20.7232 17.7607 20.7232 18.0066V19.9864L16.9733 16.2899C16.8875 16.2056 16.7721 16.1583 16.6518 16.1583C16.5316 16.1583 16.4161 16.2056 16.3304 16.2899C16.245 16.3712 16.196 16.4853 16.196 16.6051C16.1963 16.664 16.2084 16.7221 16.2315 16.7762C16.2546 16.8304 16.2882 16.8793 16.3304 16.9203L20.0814 20.6194H18.0569C17.8068 20.6194 17.6037 20.8211 17.6037 21.0675C17.604 21.1266 17.616 21.1851 17.639 21.2395C17.6621 21.2939 17.6956 21.3433 17.7378 21.3847C17.78 21.4261 17.83 21.4587 17.8848 21.4808C17.9397 21.5028 17.9983 21.5137 18.0574 21.513H21.1723C21.2613 21.5128 21.3484 21.4868 21.4228 21.4381C21.4973 21.3893 21.556 21.3199 21.5917 21.2384C21.6142 21.1842 21.6259 21.1262 21.6261 21.0675V18.0024C21.624 17.8836 21.5754 17.7703 21.4906 17.687C21.4058 17.6037 21.2917 17.557 21.1728 17.557L21.1791 17.5612ZM11.3953 14.8587C11.2103 15.0421 10.9108 15.0421 10.7258 14.8587C10.5409 14.6753 10.5409 14.3721 10.7258 14.1814C10.8147 14.0928 10.935 14.0431 11.0605 14.0431C11.186 14.0431 11.3064 14.0928 11.3953 14.1814C11.5802 14.3648 11.5802 14.668 11.3953 14.8587ZM13.1483 13.1045C13.0595 13.1931 12.9391 13.2429 12.8136 13.2429C12.6881 13.2429 12.5677 13.1931 12.4789 13.1045C12.3903 13.0156 12.3405 12.8953 12.3405 12.7698C12.3405 12.6443 12.3903 12.5239 12.4789 12.435C12.6623 12.2516 12.9634 12.2516 13.1483 12.435C13.2369 12.5239 13.2867 12.6443 13.2867 12.7698C13.2867 12.8953 13.2369 13.0156 13.1483 13.1045ZM14.8988 11.3519C14.8099 11.4405 14.6895 11.4902 14.5641 11.4902C14.4386 11.4902 14.3182 11.4405 14.2293 11.3519C14.1407 11.263 14.091 11.1426 14.091 11.0171C14.091 10.8916 14.1407 10.7712 14.2293 10.6824C14.3182 10.5938 14.4386 10.544 14.5641 10.544C14.6895 10.544 14.8099 10.5938 14.8988 10.6824C14.9874 10.7712 15.0371 10.8916 15.0371 11.0171C15.0371 11.1426 14.9874 11.263 14.8988 11.3519Z" fill="white"/>
</g>
</g>
</svg>
