<svg width="18" height="18" viewBox="0 0 18 18" fill="none" xmlns="http://www.w3.org/2000/svg">
<g id="Frame" clip-path="url(#clip0_229_596)">
<path id="Vector" d="M0.28125 9.28125C0.28125 4.30948 4.30948 0.28125 9.28125 0.28125C14.253 0.28125 18.2812 4.30948 18.2812 9.28125C18.2812 14.253 14.253 18.2812 9.28125 18.2812C4.30948 18.2812 0.28125 14.253 0.28125 9.28125ZM5.49254 10.33L8.11996 7.59012V14.2167C8.11996 14.6994 8.50827 15.0877 8.99093 15.0877H9.57157C10.0542 15.0877 10.4425 14.6994 10.4425 14.2167V7.59012L13.07 10.33C13.4075 10.6821 13.97 10.6893 14.3147 10.3446L14.7103 9.94536C15.0514 9.60423 15.0514 9.05262 14.7103 8.71512L9.89818 3.89939C9.55706 3.55827 9.00544 3.55827 8.66794 3.89939L3.84859 8.71512C3.50746 9.05625 3.50746 9.60786 3.84859 9.94536L4.24415 10.3446C4.59254 10.6893 5.15504 10.6821 5.49254 10.33Z" fill="white"/>
</g>
<defs>
<clipPath id="clip0_229_596">
<rect width="18" height="18" fill="white"/>
</clipPath>
</defs>
</svg>
